SplineFontDB: 3.0
FontName: brickable
FullName: brickable
FamilyName: brickable
Weight: Book
Copyright: Copyright (C) 2016 by original authors @ fontello.com
Version: 1.0
ItalicAngle: 0
UnderlinePosition: 10
UnderlineWidth: 0
Ascent: 850
Descent: 150
InvalidEm: 0
sfntRevision: 0x00010000
LayerCount: 2
Layer: 0 1 "Back" 1
Layer: 1 1 "Fore" 0
XUID: [1021 879 -1754703729 11618738]
FSType: 0
OS2Version: 1
OS2_WeightWidthSlopeOnly: 0
OS2_UseTypoMetrics: 1
CreationTime: 1458580275
ModificationTime: 1458990043
PfmFamily: 17
TTFWeight: 400
TTFWidth: 5
LineGap: 0
VLineGap: 0
Panose: 2 0 5 3 0 0 0 0 0 0
OS2TypoAscent: 850
OS2TypoAOffset: 0
OS2TypoDescent: -150
OS2TypoDOffset: 0
OS2TypoLinegap: 90
OS2WinAscent: 1028
OS2WinAOffset: 0
OS2WinDescent: 332
OS2WinDOffset: 0
HheadAscent: 850
HheadAOffset: 0
HheadDescent: -150
HheadDOffset: 0
OS2SubXSize: 634
OS2SubYSize: 700
OS2SubXOff: 0
OS2SubYOff: 140
OS2SupXSize: 634
OS2SupYSize: 700
OS2SupXOff: 0
OS2SupYOff: 480
OS2StrikeYSize: 49
OS2StrikeYPos: 258
OS2CapHeight: 0
OS2XHeight: 0
OS2Vendor: 'PfEd'
OS2CodePages: 00000001.00000000
OS2UnicodeRanges: 00000000.00000000.00000000.00000000
Lookup: 4 0 1 "'liga' Standard Ligatures lookup 0" { "'liga' Standard Ligatures lookup 0 subtable"  } [' RQD' ('DFLT' <'dflt' > ) 'liga' ('DFLT' <'dflt' > ) ]
DEI: 91125
TtTable: prep
SVTCA[y-axis]
MPPEM
PUSHW_1
 200
GT
IF
PUSHB_2
 1
 1
INSTCTRL
EIF
PUSHB_1
 1
PUSHW_2
 2048
 2048
MUL
WCVTF
PUSHB_2
 0
 5
WS
PUSHB_3
 23
 1
 0
LOOPCALL
PUSHB_2
 0
 5
WS
PUSHB_4
 10
 8
 1
 8
LOOPCALL
PUSHB_2
 0
 5
WS
PUSHB_4
 20
 6
 1
 8
LOOPCALL
PUSHB_2
 0
 6
WS
PUSHW_3
 704
 1
 9
LOOPCALL
PUSHB_2
 0
 7
WS
PUSHW_3
 64
 1
 9
LOOPCALL
PUSHB_2
 3
 0
WCVTP
PUSHB_2
 36
 1
GETINFO
LTEQ
IF
PUSHB_1
 64
GETINFO
IF
PUSHB_2
 3
 100
WCVTP
PUSHB_2
 38
 1
GETINFO
LTEQ
IF
PUSHW_3
 2176
 1
 1088
GETINFO
MUL
EQ
IF
PUSHB_2
 3
 0
WCVTP
EIF
EIF
EIF
EIF
PUSHB_4
 12
 8
 1
 12
LOOPCALL
PUSHW_1
 511
SCANCTRL
PUSHB_1
 4
SCANTYPE
PUSHB_2
 2
 0
WCVTP
EndTTInstrs
TtTable: fpgm
PUSHB_1
 0
FDEF
DUP

StartChar: user-secret
Encoding: 33 33 1
Width: 857
Flags: W
LayerCount: 2
Back
Fore
SplineSet
321 -7 m 1,0,-1
 375 243 l 1,1,-1
 321 314 l 1,2,-1
 250 350 l 1,3,-1
 321 -7 l 1,0,-1
464 -7 m 1,4,-1
 536 350 l 1,5,-1
 464 314 l 1,6,-1
 411 243 l 1,7,-1
 464 -7 l 1,4,-1
554 556 m 2,8,9
 552 559 552 559 551 560 c 0,10,11
 546 564 546 564 498 564 c 0,12,13
 459 564 459 564 405 554 c 0,14,15
 401 553 401 553 393 553 c 128,-1,16
 385 553 385 553 381 554 c 0,17,18
 327 564 327 564 288 564 c 0,19,20
 240 564 240 564 234 560 c 0,21,22
 233 559 233 559 232 556 c 0,23,24
 233 546 233 546 234 541 c 2,25,-1
 239 538 l 2,26,27
 242 536 242 536 243 533 c 128,-1,28
 244 530 244 530 247 520 c 128,-1,29
 250 510 250 510 251 509 c 128,-1,30
 252 508 252 508 255 500 c 128,-1,31
 258 492 258 492 260 490 c 128,-1,32
 262 488 262 488 265 482 c 128,-1,33
 268 476 268 476 272 475 c 128,-1,34
 276 474 276 474 279 469 c 128,-1,35
 282 464 282 464 289 465 c 128,-1,36
 296 466 296 466 301 463 c 128,-1,37
 306 460 306 460 314 462 c 0,38,39
 334 462 334 462 347 469 c 128,-1,40
 360 476 360 476 365 485 c 128,-1,41
 370 494 370 494 373 505 c 128,-1,42
 376 516 376 516 380 521 c 128,-1,43
 384 526 384 526 390 528 c 2,44,-1
 396 528 l 2,45,46
 402 528 402 528 406 521 c 128,-1,47
 410 514 410 514 412 505 c 128,-1,48
 414 496 414 496 421 485 c 128,-1,49
 428 474 428 474 439 469 c 128,-1,50
 450 464 450 464 472 462 c 0,51,52
 479 462 479 462 485 463 c 2,53,-1
 497 465 l 2,54,55
 503 466 503 466 506 469 c 128,-1,56
 509 472 509 472 514 475 c 128,-1,57
 519 478 519 478 521 482 c 128,-1,58
 523 486 523 486 526 490 c 128,-1,59
 529 494 529 494 531 500 c 128,-1,60
 533 506 533 506 535 509 c 128,-1,61
 537 512 537 512 539 520 c 128,-1,62
 541 528 541 528 542.5 532 c 128,-1,63
 544 536 544 536 547 538 c 2,64,-1
 551 541 l 1,65,-1
 554 556 l 2,8,9
786 66 m 0,66,67
 786 -2 786 -2 745 -40 c 128,-1,68
 704 -78 704 -78 637 -79 c 2,69,-1
 149 -79 l 2,70,71
 82 -79 82 -79 41 -40 c 128,-1,72
 0 -1 0 -1 0 66 c 0,73,74
 0 100 0 100 3 132 c 128,-1,75
 6 164 6 164 13 202 c 128,-1,76
 20 240 20 240 34 271 c 128,-1,77
 48 302 48 302 70 329 c 128,-1,78
 92 356 92 356 122 370 c 1,79,-1
 71 493 l 1,80,-1
 191 493 l 1,81,82
 179 529 179 529 179 564 c 0,83,84
 179 571 179 571 180 582 c 1,85,86
 71 604 71 604 71 636 c 128,-1,87
 71 668 71 668 189 691 c 1,88,89
 198 726 198 726 217 766 c 128,-1,90
 236 806 236 806 257 829 c 0,91,92
 275 850 275 850 299 850 c 0,93,94
 316 850 316 850 346 833 c 128,-1,95
 376 816 376 816 393 815 c 128,-1,96
 410 814 410 814 440 833 c 128,-1,97
 470 852 470 852 487 850 c 0,98,99
 511 850 511 850 529 829 c 0,100,101
 549 806 549 806 568 766 c 128,-1,102
 587 726 587 726 597 691 c 1,103,104
 714 668 714 668 714 636 c 128,-1,105
 714 604 714 604 606 582 c 1,106,107
 610 537 610 537 595 493 c 1,108,-1
 714 493 l 1,109,-1
 669 367 l 1,110,111
 704 349 704 349 729 313 c 128,-1,112
 754 277 754 277 765 233 c 128,-1,113
 776 189 776 189 781 149 c 128,-1,114
 786 109 786 109 786 66 c 0,66,67
EndSplineSet
EndChar

StartChar: okay
Encoding: 34 34 2
Width: 857
Flags: W
LayerCount: 2
Back
Fore
SplineSet
653 396 m 2,0,-1
 418 161 l 2,1,2
 407 150 407 150 393 150 c 128,-1,3
 379 150 379 150 368 161 c 2,4,-1
 204 325 l 2,5,6
 193 336 193 336 193 350 c 128,-1,7
 193 364 193 364 204 375 c 2,8,-1
 261 432 l 2,9,10
 271 443 271 443 286 443 c 128,-1,11
 301 443 301 443 311 432 c 2,12,-1
 393 350 l 1,13,-1
 546 503 l 2,14,15
 557 514 557 514 571 514 c 128,-1,16
 585 514 585 514 597 503 c 2,17,-1
 653 447 l 2,18,19
 664 436 664 436 664 421 c 128,-1,20
 664 406 664 406 653 396 c 2,0,-1
732 350 m 0,21,22
 732 433 732 433 691 502 c 128,-1,23
 650 571 650 571 581 613 c 128,-1,24
 512 655 512 655 429 654 c 128,-1,25
 346 653 346 653 276 613 c 128,-1,26
 206 573 206 573 166 502 c 128,-1,27
 126 431 126 431 125 350 c 128,-1,28
 124 269 124 269 166 198 c 128,-1,29
 208 127 208 127 276 87 c 128,-1,30
 344 47 344 47 429 46 c 128,-1,31
 514 45 514 45 581 87 c 128,-1,32
 648 129 648 129 691 198 c 128,-1,33
 734 267 734 267 732 350 c 0,21,22
857 350 m 1,34,35
 857 233 857 233 800 135 c 128,-1,36
 743 37 743 37 644 -21 c 128,-1,37
 545 -79 545 -79 429 -79 c 128,-1,38
 313 -79 313 -79 213 -21 c 128,-1,39
 113 37 113 37 58 135 c 128,-1,40
 3 233 3 233 0 350 c 128,-1,41
 -3 467 -3 467 58 565 c 128,-1,42
 119 663 119 663 213 721 c 128,-1,43
 307 779 307 779 429 779 c 128,-1,44
 551 779 551 779 644 721 c 128,-1,45
 737 663 737 663 800 565 c 128,-1,46
 863 467 863 467 857 350 c 1,34,35
EndSplineSet
EndChar

StartChar: ok-boxed
Encoding: 35 35 3
Width: 857
Flags: W
LayerCount: 2
Back
Fore
SplineSet
382 125 m 2,0,-1
 725 468 l 2,1,2
 735 478 735 478 735 493 c 128,-1,3
 735 508 735 508 725 518 c 2,4,-1
 668 575 l 2,5,6
 657 585 657 585 643 585 c 128,-1,7
 629 585 629 585 618 575 c 2,8,-1
 357 314 l 1,9,-1
 239 432 l 2,10,11
 229 443 229 443 214 443 c 128,-1,12
 199 443 199 443 189 432 c 2,13,-1
 132 375 l 2,14,15
 122 365 122 365 122 350 c 128,-1,16
 122 335 122 335 132 325 c 2,17,-1
 332 125 l 2,18,19
 343 115 343 115 357 115 c 128,-1,20
 371 115 371 115 382 125 c 2,0,-1
857 618 m 2,21,-1
 857 82 l 2,22,23
 857 16 857 16 810 -31 c 128,-1,24
 763 -78 763 -78 696 -79 c 2,25,-1
 161 -79 l 2,26,27
 94 -79 94 -79 47 -31 c 128,-1,28
 0 17 0 17 0 82 c 2,29,-1
 0 618 l 2,30,31
 0 684 0 684 47 731 c 128,-1,32
 94 778 94 778 161 779 c 2,33,-1
 696 779 l 2,34,35
 763 779 763 779 810 731 c 128,-1,36
 857 683 857 683 857 618 c 2,21,-1
EndSplineSet
EndChar

StartChar: plus
Encoding: 36 36 4
Width: 857
Flags: W
LayerCount: 2
Back
Fore
SplineSet
714 314 m 2,0,-1
 714 386 l 2,1,2
 714 400 714 400 704 411 c 128,-1,3
 694 422 694 422 679 421 c 2,4,-1
 500 421 l 1,5,-1
 500 600 l 2,6,7
 500 615 500 615 489 625 c 128,-1,8
 478 635 478 635 464 636 c 2,9,-1
 393 636 l 2,10,11
 378 636 378 636 368 625 c 128,-1,12
 358 614 358 614 357 600 c 2,13,-1
 357 421 l 1,14,-1
 179 421 l 2,15,16
 164 421 164 421 153 411 c 128,-1,17
 142 401 142 401 143 386 c 2,18,-1
 143 314 l 2,19,20
 143 300 143 300 153 289 c 128,-1,21
 163 278 163 278 179 279 c 2,22,-1
 357 279 l 1,23,-1
 357 100 l 2,24,25
 357 86 357 86 368 75 c 128,-1,26
 379 64 379 64 393 64 c 2,27,-1
 464 64 l 2,28,29
 479 64 479 64 489 75 c 128,-1,30
 499 86 499 86 500 100 c 2,31,-1
 500 279 l 1,32,-1
 679 279 l 2,33,34
 693 279 693 279 704 289 c 128,-1,35
 715 299 715 299 714 314 c 2,0,-1
857 618 m 2,36,-1
 857 82 l 2,37,38
 857 16 857 16 810 -31 c 128,-1,39
 763 -78 763 -78 696 -79 c 2,40,-1
 161 -79 l 2,41,42
 94 -79 94 -79 47 -31 c 128,-1,43
 0 17 0 17 0 82 c 2,44,-1
 0 618 l 2,45,46
 0 684 0 684 47 731 c 128,-1,47
 94 778 94 778 161 779 c 2,48,-1
 696 779 l 2,49,50
 763 779 763 779 810 731 c 128,-1,51
 857 683 857 683 857 618 c 2,36,-1
EndSplineSet
EndChar

StartChar: plus-boxed
Encoding: 37 37 5
Width: 785
Flags: W
LayerCount: 2
Back
Fore
SplineSet
643 404 m 2,0,-1
 643 368 l 2,1,2
 643 360 643 360 638 355 c 128,-1,3
 633 350 633 350 625 350 c 2,4,-1
 429 350 l 1,5,-1
 429 154 l 2,6,7
 429 146 429 146 424 141 c 128,-1,8
 419 136 419 136 411 136 c 2,9,-1
 375 136 l 2,10,11
 367 136 367 136 362 141 c 128,-1,12
 357 146 357 146 357 154 c 2,13,-1
 357 350 l 1,14,-1
 161 350 l 2,15,16
 153 350 153 350 148 355 c 128,-1,17
 143 360 143 360 143 368 c 2,18,-1
 143 404 l 2,19,20
 143 411 143 411 148 416 c 128,-1,21
 153 421 153 421 161 421 c 2,22,-1
 357 421 l 1,23,-1
 357 618 l 2,24,25
 357 626 357 626 362 631 c 128,-1,26
 367 636 367 636 375 636 c 2,27,-1
 411 636 l 2,28,29
 419 636 419 636 424 631 c 128,-1,30
 429 626 429 626 429 618 c 2,31,-1
 429 421 l 1,32,-1
 625 421 l 2,33,34
 633 421 633 421 638 416 c 128,-1,35
 643 411 643 411 643 404 c 2,0,-1
714 154 m 2,36,-1
 714 618 l 2,37,38
 714 655 714 655 688 681 c 128,-1,39
 662 707 662 707 625 707 c 2,40,-1
 161 707 l 2,41,42
 124 707 124 707 98 681 c 128,-1,43
 72 655 72 655 71 618 c 2,44,-1
 71 154 l 2,45,46
 71 117 71 117 98 91 c 128,-1,47
 125 65 125 65 161 64 c 2,48,-1
 625 64 l 2,49,50
 662 64 662 64 688 91 c 128,-1,51
 714 118 714 118 714 154 c 2,36,-1
786 618 m 2,52,-1
 786 154 l 2,53,54
 786 87 786 87 739 40 c 128,-1,55
 692 -7 692 -7 625 -7 c 2,56,-1
 161 -7 l 2,57,58
 94 -7 94 -7 47 40 c 128,-1,59
 0 87 0 87 0 154 c 2,60,-1
 0 618 l 2,61,62
 0 684 0 684 47 731 c 128,-1,63
 94 778 94 778 161 779 c 2,64,-1
 625 779 l 2,65,66
 691 779 691 779 739 731 c 128,-1,67
 787 683 787 683 786 618 c 2,52,-1
EndSplineSet
EndChar

StartChar: home
Encoding: 38 38 6
Width: 928
Flags: W
LayerCount: 2
Back
Fore
SplineSet
786 296 m 2,0,-1
 786 29 l 2,1,2
 786 14 786 14 775 3 c 128,-1,3
 764 -8 764 -8 750 -7 c 2,4,-1
 536 -7 l 1,5,-1
 536 207 l 1,6,-1
 393 207 l 1,7,-1
 393 -7 l 1,8,-1
 179 -7 l 2,9,10
 164 -7 164 -7 154 3 c 128,-1,11
 144 13 144 13 143 29 c 2,12,-1
 143 300 l 1,13,-1
 464 564 l 1,14,-1
 785 300 l 2,15,16
 786 299 786 299 786 296 c 2,0,-1
910 335 m 2,17,-1
 876 294 l 2,18,19
 871 289 871 289 864 288 c 2,20,-1
 862 288 l 2,21,22
 855 288 855 288 850 291 c 2,23,-1
 464 613 l 1,24,-1
 78 291 l 2,25,26
 71 287 71 287 64.5 288 c 128,-1,27
 58 289 58 289 53 294 c 2,28,-1
 18 335 l 2,29,30
 14 341 14 341 15 348 c 128,-1,31
 16 355 16 355 21 360 c 2,32,-1
 422 694 l 2,33,34
 440 709 440 709 464 709 c 128,-1,35
 488 709 488 709 507 694 c 2,36,-1
 643 580 l 1,37,-1
 643 689 l 2,38,39
 643 697 643 697 648 702 c 128,-1,40
 653 707 653 707 661 707 c 2,41,-1
 768 707 l 2,42,43
 776 707 776 707 781 702 c 128,-1,44
 786 697 786 697 786 689 c 2,45,-1
 786 462 l 1,46,-1
 908 360 l 2,47,48
 913 356 913 356 914 348 c 128,-1,49
 915 340 915 340 910 335 c 2,17,-1
EndSplineSet
EndChar

StartChar: eye
Encoding: 39 39 7
Width: 1000
Flags: W
LayerCount: 2
Back
Fore
SplineSet
929 314 m 1,0,1
 844 446 844 446 716 511 c 1,2,3
 750 453 750 453 750 386 c 0,4,5
 750 282 750 282 677 209 c 128,-1,6
 604 136 604 136 500 136 c 128,-1,7
 396 136 396 136 323 209 c 128,-1,8
 250 282 250 282 250 386 c 0,9,10
 250 453 250 453 284 511 c 1,11,12
 156 446 156 446 71 314 c 1,13,14
 146 200 146 200 258 132 c 128,-1,15
 370 64 370 64 500 64 c 128,-1,16
 630 64 630 64 742 132 c 128,-1,17
 854 200 854 200 929 314 c 1,0,1
527 529 m 256,18,19
 527 540 527 540 519 548 c 128,-1,20
 511 556 511 556 500 555 c 0,21,22
 430 555 430 555 380 505 c 128,-1,23
 330 455 330 455 330 386 c 0,24,25
 330 375 330 375 338 367 c 128,-1,26
 346 359 346 359 357 359 c 128,-1,27
 368 359 368 359 376 367 c 128,-1,28
 384 375 384 375 384 386 c 0,29,30
 384 434 384 434 418 468 c 128,-1,31
 452 502 452 502 500 502 c 0,32,33
 511 502 511 502 519 510 c 128,-1,34
 527 518 527 518 527 529 c 256,18,19
1000 314 m 256,35,36
 1000 295 1000 295 989 276 c 0,37,38
 911 147 911 147 779 70 c 128,-1,39
 647 -7 647 -7 500 -7 c 128,-1,40
 353 -7 353 -7 221 70 c 128,-1,41
 89 147 89 147 11 276 c 0,42,43
 0 295 0 295 0 314 c 128,-1,44
 0 333 0 333 11 353 c 0,45,46
 89 481 89 481 221 558 c 128,-1,47
 353 635 353 635 500 636 c 128,-1,48
 647 637 647 637 779 558 c 128,-1,49
 911 479 911 479 989 353 c 0,50,51
 1000 333 1000 333 1000 314 c 256,35,36
EndSplineSet
EndChar

StartChar: eye-off
Encoding: 40 40 8
Width: 1000
Flags: W
LayerCount: 2
Back
Fore
SplineSet
310 105 m 1,0,-1
 353 184 l 1,1,2
 305 219 305 219 277 272 c 128,-1,3
 249 325 249 325 250 386 c 0,4,5
 250 453 250 453 284 511 c 1,6,7
 156 446 156 446 71 314 c 1,8,9
 165 170 165 170 310 105 c 1,0,-1
527 529 m 256,10,11
 527 540 527 540 519 548 c 128,-1,12
 511 556 511 556 500 555 c 0,13,14
 430 555 430 555 380 505 c 128,-1,15
 330 455 330 455 330 386 c 0,16,17
 330 375 330 375 338 367 c 128,-1,18
 346 359 346 359 357 359 c 128,-1,19
 368 359 368 359 376 367 c 128,-1,20
 384 375 384 375 384 386 c 0,21,22
 384 434 384 434 418 468 c 128,-1,23
 452 502 452 502 500 502 c 0,24,25
 511 502 511 502 519 510 c 128,-1,26
 527 518 527 518 527 529 c 256,10,11
729 635 m 0,27,28
 729 631 729 631 729 630 c 0,29,30
 670 525 670 525 553 314 c 128,-1,31
 436 103 436 103 377 -2 c 2,32,-1
 349 -52 l 2,33,34
 344 -61 344 -61 334 -61 c 0,35,36
 327 -61 327 -61 259 -22 c 0,37,38
 250 -16 250 -16 250 -6 c 0,39,40
 250 1 250 1 275 43 c 1,41,42
 195 79 195 79 128 139 c 128,-1,43
 61 199 61 199 11 276 c 0,44,45
 0 293 0 293 0 314 c 128,-1,46
 0 335 0 335 11 353 c 0,47,48
 97 484 97 484 223 560 c 128,-1,49
 349 636 349 636 500 636 c 0,50,51
 550 636 550 636 600 626 c 1,52,-1
 631 680 l 2,53,54
 636 689 636 689 646 689 c 0,55,56
 649 689 649 689 656 686 c 128,-1,57
 663 683 663 683 674 677 c 2,58,-1
 710 657 l 2,59,60
 721 651 721 651 720 650 c 1,61,62
 729 645 729 645 729 635 c 0,27,28
750 386 m 0,63,64
 750 308 750 308 706 244 c 128,-1,65
 662 180 662 180 589 152 c 1,66,-1
 746 433 l 1,67,68
 750 407 750 407 750 386 c 0,63,64
1000 314 m 0,69,70
 1000 295 1000 295 989 276 c 0,71,72
 967 240 967 240 928 195 c 0,73,74
 844 99 844 99 734 46 c 128,-1,75
 624 -7 624 -7 500 -7 c 1,76,-1
 541 67 l 1,77,78
 660 77 660 77 760 143 c 128,-1,79
 860 209 860 209 929 314 c 1,80,81
 864 414 864 414 771 478 c 1,82,-1
 806 541 l 1,83,84
 859 505 859 505 908 455 c 128,-1,85
 957 405 957 405 989 353 c 0,86,87
 1000 334 1000 334 1000 314 c 0,69,70
EndSplineSet
EndChar

StartChar: code
Encoding: 41 41 9
Width: 1071
Flags: W
LayerCount: 2
Back
Fore
SplineSet
344 69 m 2,0,-1
 316 41 l 2,1,2
 311 36 311 36 304 36 c 128,-1,3
 297 36 297 36 291 41 c 2,4,-1
 31 301 l 2,5,6
 25 307 25 307 25 314 c 128,-1,7
 25 321 25 321 31 327 c 2,8,-1
 291 587 l 2,9,10
 296 593 296 593 304 593 c 128,-1,11
 312 593 312 593 316 587 c 2,12,-1
 344 559 l 2,13,14
 350 554 350 554 350 546 c 128,-1,15
 350 538 350 538 344 534 c 2,16,-1
 125 314 l 1,17,-1
 344 95 l 2,18,19
 350 89 350 89 350 82 c 128,-1,20
 350 75 350 75 344 69 c 2,0,-1
674 665 m 2,21,-1
 466 -56 l 2,22,23
 464 -63 464 -63 457 -67 c 128,-1,24
 450 -71 450 -71 444 -68 c 2,25,-1
 410 -59 l 2,26,27
 402 -56 402 -56 399 -50 c 128,-1,28
 396 -44 396 -44 397 -36 c 2,29,-1
 605 684 l 2,30,31
 608 692 608 692 614 695 c 128,-1,32
 620 698 620 698 627 697 c 2,33,-1
 662 687 l 2,34,35
 669 685 669 685 673 678 c 128,-1,36
 677 671 677 671 674 665 c 2,21,-1
1041 301 m 2,37,-1
 781 41 l 2,38,39
 775 36 775 36 768 36 c 128,-1,40
 761 36 761 36 755 41 c 2,41,-1
 727 69 l 2,42,43
 722 75 722 75 722 82 c 128,-1,44
 722 89 722 89 727 95 c 2,45,-1
 946 314 l 1,46,-1
 727 534 l 2,47,48
 722 539 722 539 722 546 c 128,-1,49
 722 553 722 553 727 559 c 2,50,-1
 755 587 l 2,51,52
 761 593 761 593 768 593 c 128,-1,53
 775 593 775 593 781 587 c 2,54,-1
 1041 327 l 2,55,56
 1046 322 1046 322 1046 314 c 128,-1,57
 1046 306 1046 306 1041 301 c 2,37,-1
EndSplineSet
EndChar

StartChar: pencil
Encoding: 42 42 10
Width: 857
Flags: W
LayerCount: 2
Back
Fore
SplineSet
203 -7 m 1,0,-1
 253 44 l 1,1,-1
 122 175 l 1,2,-1
 71 124 l 1,3,-1
 71 64 l 1,4,-1
 143 64 l 1,5,-1
 143 -7 l 1,6,-1
 203 -7 l 1,0,-1
494 511 m 0,7,8
 494 523 494 523 482 523 c 0,9,10
 477 523 477 523 473 519 c 2,11,-1
 170 217 l 2,12,13
 166 213 166 213 166 207 c 0,14,15
 166 195 166 195 179 195 c 0,16,17
 184 195 184 195 188 199 c 2,18,-1
 491 501 l 2,19,20
 494 505 494 505 494 511 c 0,7,8
464 618 m 1,21,-1
 696 386 l 1,22,-1
 232 -79 l 1,23,-1
 0 -79 l 1,24,-1
 0 154 l 1,25,-1
 464 618 l 1,21,-1
845 564 m 256,26,27
 845 535 845 535 825 514 c 2,28,-1
 732 421 l 1,29,-1
 500 654 l 1,30,-1
 593 746 l 2,31,32
 613 767 613 767 642.5 767 c 128,-1,33
 672 767 672 767 694 746 c 2,34,-1
 825 615 l 2,35,36
 845 593 845 593 845 564 c 256,26,27
EndSplineSet
EndChar

StartChar: trash-1
Encoding: 43 43 11
Width: 785
Flags: W
LayerCount: 2
Back
Fore
SplineSet
286 82 m 2,0,-1
 286 475 l 2,1,2
 286 483 286 483 281 488 c 128,-1,3
 276 493 276 493 268 493 c 2,4,-1
 232 493 l 2,5,6
 224 493 224 493 219 488 c 128,-1,7
 214 483 214 483 214 475 c 2,8,-1
 214 82 l 2,9,10
 214 74 214 74 219 69 c 128,-1,11
 224 64 224 64 232 64 c 2,12,-1
 268 64 l 2,13,14
 276 64 276 64 281 69 c 128,-1,15
 286 74 286 74 286 82 c 2,0,-1
429 82 m 2,16,-1
 429 475 l 2,17,18
 429 483 429 483 424 488 c 128,-1,19
 419 493 419 493 411 493 c 2,20,-1
 375 493 l 2,21,22
 367 493 367 493 362 488 c 128,-1,23
 357 483 357 483 357 475 c 2,24,-1
 357 82 l 2,25,26
 357 74 357 74 362 69 c 128,-1,27
 367 64 367 64 375 64 c 2,28,-1
 411 64 l 2,29,30
 419 64 419 64 424 69 c 128,-1,31
 429 74 429 74 429 82 c 2,16,-1
571 82 m 2,32,-1
 571 475 l 2,33,34
 571 483 571 483 566 488 c 128,-1,35
 561 493 561 493 554 493 c 2,36,-1
 518 493 l 2,37,38
 510 493 510 493 505 488 c 128,-1,39
 500 483 500 483 500 475 c 2,40,-1
 500 82 l 2,41,42
 500 74 500 74 505 69 c 128,-1,43
 510 64 510 64 518 64 c 2,44,-1
 554 64 l 2,45,46
 561 64 561 64 566 69 c 128,-1,47
 571 74 571 74 571 82 c 2,32,-1
268 636 m 1,48,-1
 518 636 l 1,49,-1
 491 701 l 2,50,51
 487 706 487 706 482 707 c 2,52,-1
 305 707 l 2,53,54
 299 706 299 706 295 701 c 2,55,-1
 268 636 l 1,48,-1
786 618 m 2,56,-1
 786 582 l 2,57,58
 786 574 786 574 781 569 c 128,-1,59
 776 564 776 564 768 564 c 2,60,-1
 714 564 l 1,61,-1
 714 35 l 2,62,63
 714 -11 714 -11 688 -45 c 128,-1,64
 662 -79 662 -79 625 -79 c 2,65,-1
 161 -79 l 2,66,67
 124 -79 124 -79 98 -46 c 128,-1,68
 72 -13 72 -13 71 33 c 2,69,-1
 71 564 l 1,70,-1
 18 564 l 2,71,72
 10 564 10 564 5 569 c 128,-1,73
 0 574 0 574 0 582 c 2,74,-1
 0 618 l 2,75,76
 0 626 0 626 5 631 c 128,-1,77
 10 636 10 636 18 636 c 2,78,-1
 190 636 l 1,79,-1
 229 729 l 2,80,81
 238 750 238 750 260 764 c 128,-1,82
 282 778 282 778 304 779 c 2,83,-1
 482 779 l 2,84,85
 504 779 504 779 526 764 c 128,-1,86
 548 749 548 749 556 729 c 2,87,-1
 595 636 l 1,88,-1
 768 636 l 2,89,90
 776 636 776 636 781 631 c 128,-1,91
 786 626 786 626 786 618 c 2,56,-1
EndSplineSet
EndChar

StartChar: docs
Encoding: 44 44 12
Width: 1000
Flags: W
LayerCount: 2
Back
Fore
SplineSet
946 636 m 2,0,1
 969 636 969 636 984 620 c 128,-1,2
 999 604 999 604 1000 582 c 2,3,-1
 1000 -96 l 2,4,5
 1000 -119 1000 -119 984 -134 c 128,-1,6
 968 -149 968 -149 946 -150 c 2,7,-1
 411 -150 l 2,8,9
 388 -150 388 -150 373 -134 c 128,-1,10
 358 -118 358 -118 357 -96 c 2,11,-1
 357 64 l 1,12,-1
 54 64 l 2,13,14
 31 64 31 64 16 80 c 128,-1,15
 1 96 1 96 0 118 c 2,16,-1
 0 493 l 2,17,18
 0 515 0 515 11 542 c 128,-1,19
 22 569 22 569 38 584 c 2,20,-1
 266 812 l 2,21,22
 281 828 281 828 308 839 c 128,-1,23
 335 850 335 850 357 850 c 2,24,-1
 589 850 l 2,25,26
 612 850 612 850 627 834 c 128,-1,27
 642 818 642 818 643 796 c 2,28,-1
 643 613 l 1,29,30
 681 636 681 636 714 636 c 2,31,-1
 946 636 l 2,0,1
643 517 m 1,32,-1
 476 350 l 1,33,-1
 643 350 l 1,34,-1
 643 517 l 1,32,-1
286 731 m 1,35,-1
 119 564 l 1,36,-1
 286 564 l 1,37,-1
 286 731 l 1,35,-1
395 370 m 2,38,-1
 571 546 l 1,39,-1
 571 779 l 1,40,-1
 357 779 l 1,41,-1
 357 546 l 2,42,43
 357 524 357 524 342 508 c 128,-1,44
 327 492 327 492 304 493 c 2,45,-1
 71 493 l 1,46,-1
 71 136 l 1,47,-1
 357 136 l 1,48,-1
 357 279 l 2,49,50
 357 301 357 301 368 328 c 128,-1,51
 379 355 379 355 395 370 c 2,38,-1
929 -79 m 1,52,-1
 929 564 l 1,53,-1
 714 564 l 1,54,-1
 714 332 l 2,55,56
 714 310 714 310 699 294 c 128,-1,57
 684 278 684 278 661 279 c 2,58,-1
 429 279 l 1,59,-1
 429 -79 l 1,60,-1
 929 -79 l 1,52,-1
EndSplineSet
EndChar

StartChar: box
Encoding: 45 45 13
Width: 1000
Flags: W
LayerCount: 2
Back
Fore
SplineSet
607 386 m 0,0,1
 607 400 607 400 597 411 c 128,-1,2
 587 422 587 422 571 421 c 2,3,-1
 429 421 l 2,4,5
 414 421 414 421 403 411 c 128,-1,6
 392 401 392 401 393 386 c 128,-1,7
 394 371 394 371 403 361 c 128,-1,8
 412 351 412 351 429 350 c 2,9,-1
 571 350 l 2,10,11
 586 350 586 350 597 361 c 128,-1,12
 608 372 608 372 607 386 c 0,0,1
929 493 m 2,13,-1
 929 -43 l 2,14,15
 929 -57 929 -57 918 -68 c 128,-1,16
 907 -79 907 -79 893 -79 c 2,17,-1
 107 -79 l 2,18,19
 93 -79 93 -79 82 -68 c 128,-1,20
 71 -57 71 -57 71 -43 c 2,21,-1
 71 493 l 2,22,23
 71 507 71 507 82 518 c 128,-1,24
 93 529 93 529 107 529 c 2,25,-1
 893 529 l 2,26,27
 907 529 907 529 918 518 c 128,-1,28
 929 507 929 507 929 493 c 2,13,-1
964 743 m 2,29,-1
 964 600 l 2,30,31
 964 585 964 585 954 575 c 128,-1,32
 944 565 944 565 929 564 c 2,33,-1
 71 564 l 2,34,35
 57 564 57 564 46 575 c 128,-1,36
 35 586 35 586 36 600 c 2,37,-1
 36 743 l 2,38,39
 36 757 36 757 46 768 c 128,-1,40
 56 779 56 779 71 779 c 2,41,-1
 929 779 l 2,42,43
 943 779 943 779 954 768 c 128,-1,44
 965 757 965 757 964 743 c 2,29,-1
EndSplineSet
EndChar

StartChar: cog
Encoding: 46 46 14
Width: 857
Flags: W
LayerCount: 2
Back
Fore
SplineSet
571 350 m 0,0,1
 571 409 571 409 530 451 c 128,-1,2
 489 493 489 493 429 493 c 128,-1,3
 369 493 369 493 328 451 c 128,-1,4
 287 409 287 409 286 350 c 128,-1,5
 285 291 285 291 328 249 c 128,-1,6
 371 207 371 207 429 207 c 128,-1,7
 487 207 487 207 530 249 c 128,-1,8
 573 291 573 291 571 350 c 0,0,1
857 411 m 2,9,-1
 857 287 l 2,10,11
 857 280 857 280 853 274 c 128,-1,12
 849 268 849 268 842 267 c 2,13,-1
 738 251 l 1,14,15
 728 221 728 221 717 200 c 1,16,17
 736 173 736 173 776 123 c 0,18,19
 782 117 782 117 782 110 c 128,-1,20
 782 103 782 103 777 97 c 0,21,22
 762 76 762 76 722 36 c 128,-1,23
 682 -4 682 -4 669 -3 c 0,24,25
 662 -3 662 -3 655 2 c 2,26,-1
 578 62 l 1,27,28
 553 49 553 49 527 41 c 1,29,30
 518 -35 518 -35 511 -63 c 0,31,32
 507 -79 507 -79 491 -79 c 2,33,-1
 367 -79 l 2,34,35
 359 -79 359 -79 353 -74 c 128,-1,36
 347 -69 347 -69 347 -62 c 2,37,-1
 331 41 l 1,38,39
 304 50 304 50 281 62 c 1,40,-1
 202 2 l 2,41,42
 196 -3 196 -3 188 -3 c 128,-1,43
 180 -3 180 -3 174 3 c 0,44,45
 104 67 104 67 82 97 c 0,46,47
 78 102 78 102 78 109 c 128,-1,48
 78 116 78 116 83 122 c 0,49,50
 91 134 91 134 111 159 c 128,-1,51
 131 184 131 184 141 199 c 1,52,53
 126 227 126 227 118 254 c 1,54,-1
 16 269 l 2,55,56
 9 270 9 270 5 276 c 128,-1,57
 1 282 1 282 0 289 c 2,58,-1
 0 413 l 2,59,60
 0 420 0 420 5 426 c 128,-1,61
 10 432 10 432 15 433 c 2,62,-1
 119 449 l 1,63,64
 127 474 127 474 141 500 c 1,65,66
 118 532 118 532 81 577 c 0,67,68
 75 584 75 584 75 590 c 128,-1,69
 75 596 75 596 80 603 c 0,70,71
 95 623 95 623 135 663 c 128,-1,72
 175 703 175 703 188 703 c 0,73,74
 195 703 195 703 203 698 c 2,75,-1
 280 638 l 1,76,77
 304 651 304 651 330 659 c 1,78,79
 339 735 339 735 347 763 c 0,80,81
 350 779 350 779 367 779 c 2,82,-1
 491 779 l 2,83,84
 498 779 498 779 504 774 c 128,-1,85
 510 769 510 769 511 762 c 2,86,-1
 526 659 l 1,87,88
 554 650 554 650 576 639 c 1,89,-1
 656 698 l 2,90,91
 661 703 661 703 668.5 703 c 128,-1,92
 676 703 676 703 683 698 c 0,93,94
 755 631 755 631 775 603 c 0,95,96
 779 598 779 598 779 591 c 128,-1,97
 779 584 779 584 775 578 c 0,98,99
 766 566 766 566 746 541 c 128,-1,100
 726 516 726 516 716 501 c 1,101,102
 730 473 730 473 739 447 c 1,103,-1
 841 431 l 2,104,105
 848 430 848 430 853 424 c 128,-1,106
 858 418 858 418 857 411 c 2,9,-1
EndSplineSet
EndChar

StartChar: wrench
Encoding: 47 47 15
Width: 928
Flags: W
LayerCount: 2
Back
Fore
SplineSet
214 29 m 0,0,1
 214 43 214 43 204 54 c 128,-1,2
 194 65 194 65 179 64 c 128,-1,3
 164 63 164 63 153 54 c 128,-1,4
 142 45 142 45 143 29 c 128,-1,5
 144 13 144 13 153 3 c 128,-1,6
 162 -7 162 -7 179 -7 c 128,-1,7
 196 -7 196 -7 204 3 c 128,-1,8
 212 13 212 13 214 29 c 0,0,1
574 263 m 1,9,-1
 193 -118 l 2,10,11
 172 -138 172 -138 143 -138 c 128,-1,12
 114 -138 114 -138 92 -118 c 2,13,-1
 33 -57 l 2,14,15
 12 -37 12 -37 12 -7.5 c 128,-1,16
 12 22 12 22 33 44 c 2,17,-1
 413 424 l 1,18,19
 435 369 435 369 477 327 c 128,-1,20
 519 285 519 285 574 263 c 1,9,-1
927 506 m 0,21,22
 927 484 927 484 915 447 c 0,23,24
 888 372 888 372 823 325 c 128,-1,25
 758 278 758 278 679 279 c 0,26,27
 575 279 575 279 502 352 c 128,-1,28
 429 425 429 425 429 529 c 128,-1,29
 429 633 429 633 502 705 c 128,-1,30
 575 777 575 777 679 779 c 0,31,32
 711 779 711 779 746 769 c 128,-1,33
 781 759 781 759 806 743 c 0,34,35
 815 737 815 737 815 728 c 128,-1,36
 815 719 815 719 806 712 c 2,37,-1
 643 618 l 1,38,-1
 643 493 l 1,39,-1
 751 433 l 2,40,41
 753 435 753 435 795 460 c 2,42,-1
 870 505 l 2,43,44
 903 525 903 525 910.5 525 c 128,-1,45
 918 525 918 525 923 520 c 128,-1,46
 928 515 928 515 927 506 c 0,21,22
EndSplineSet
EndChar

StartChar: sliders
Encoding: 48 48 16
Width: 857
Flags: W
LayerCount: 2
Back
Fore
SplineSet
196 64 m 1,0,-1
 196 -7 l 1,1,-1
 0 -7 l 1,2,-1
 0 64 l 1,3,-1
 196 64 l 1,0,-1
393 136 m 2,4,5
 407 136 407 136 418 125 c 128,-1,6
 429 114 429 114 429 100 c 2,7,-1
 429 -43 l 2,8,9
 429 -57 429 -57 418 -68 c 128,-1,10
 407 -79 407 -79 393 -79 c 2,11,-1
 250 -79 l 2,12,13
 236 -79 236 -79 225 -68 c 128,-1,14
 214 -57 214 -57 214 -43 c 2,15,-1
 214 100 l 2,16,17
 214 115 214 115 225 125 c 128,-1,18
 236 135 236 135 250 136 c 2,19,-1
 393 136 l 2,4,5
482 350 m 1,20,-1
 482 279 l 1,21,-1
 0 279 l 1,22,-1
 0 350 l 1,23,-1
 482 350 l 1,20,-1
125 636 m 1,24,-1
 125 564 l 1,25,-1
 0 564 l 1,26,-1
 0 636 l 1,27,-1
 125 636 l 1,24,-1
857 64 m 1,28,-1
 857 -7 l 1,29,-1
 446 -7 l 1,30,-1
 446 64 l 1,31,-1
 857 64 l 1,28,-1
321 707 m 2,32,33
 336 707 336 707 347 697 c 128,-1,34
 358 687 358 687 357 671 c 2,35,-1
 357 529 l 2,36,37
 357 514 357 514 347 503 c 128,-1,38
 337 492 337 492 321 493 c 2,39,-1
 179 493 l 2,40,41
 164 493 164 493 153 503 c 128,-1,42
 142 513 142 513 143 529 c 2,43,-1
 143 671 l 2,44,45
 143 686 143 686 153 697 c 128,-1,46
 163 708 163 708 179 707 c 2,47,-1
 321 707 l 2,32,33
679 421 m 2,48,49
 693 421 693 421 704 411 c 128,-1,50
 715 401 715 401 714 386 c 2,51,-1
 714 243 l 2,52,53
 714 228 714 228 704 218 c 128,-1,54
 694 208 694 208 679 207 c 2,55,-1
 536 207 l 2,56,57
 521 207 521 207 511 218 c 128,-1,58
 501 229 501 229 500 243 c 2,59,-1
 500 386 l 2,60,61
 500 400 500 400 511 411 c 128,-1,62
 522 422 522 422 536 421 c 2,63,-1
 679 421 l 2,48,49
857 350 m 1,64,-1
 857 279 l 1,65,-1
 732 279 l 1,66,-1
 732 350 l 1,67,-1
 857 350 l 1,64,-1
857 636 m 1,68,-1
 857 564 l 1,69,-1
 375 564 l 1,70,-1
 375 636 l 1,71,-1
 857 636 l 1,68,-1
EndSplineSet
EndChar

StartChar: down-dir
Encoding: 49 49 17
Width: 571
Flags: W
LayerCount: 2
Back
Fore
SplineSet
571 457 m 0,0,1
 571 443 571 443 561 432 c 2,2,-1
 311 182 l 2,3,4
 300 171 300 171 286 171 c 128,-1,5
 272 171 272 171 261 182 c 2,6,-1
 11 432 l 2,7,8
 0 443 0 443 0 457 c 128,-1,9
 0 471 0 471 11 482 c 128,-1,10
 22 493 22 493 36 493 c 2,11,-1
 536 493 l 2,12,13
 550 493 550 493 561 482 c 128,-1,14
 572 471 572 471 571 457 c 0,0,1
EndSplineSet
EndChar

StartChar: up-dir
Encoding: 50 50 18
Width: 571
Flags: W
LayerCount: 2
Back
Fore
SplineSet
571 171 m 0,0,1
 571 157 571 157 561 146 c 128,-1,2
 551 135 551 135 536 136 c 2,3,-1
 36 136 l 2,4,5
 21 136 21 136 11 146 c 128,-1,6
 1 156 1 156 0 171 c 128,-1,7
 -1 186 -1 186 11 197 c 2,8,-1
 261 447 l 2,9,10
 271 457 271 457 286 457 c 128,-1,11
 301 457 301 457 311 447 c 2,12,-1
 561 197 l 2,13,14
 571 186 571 186 571 171 c 0,0,1
EndSplineSet
EndChar

StartChar: left-dir
Encoding: 51 51 19
Width: 357
Flags: W
LayerCount: 2
Back
Fore
SplineSet
357 600 m 2,0,-1
 357 100 l 2,1,2
 357 86 357 86 347 75 c 128,-1,3
 337 64 337 64 321 64 c 128,-1,4
 305 64 305 64 296 75 c 2,5,-1
 46 325 l 2,6,7
 36 336 36 336 36 350 c 128,-1,8
 36 364 36 364 46 375 c 2,9,-1
 296 625 l 2,10,11
 307 636 307 636 321 636 c 128,-1,12
 335 636 335 636 347 625 c 128,-1,13
 359 614 359 614 357 600 c 2,0,-1
EndSplineSet
EndChar

StartChar: right-dir
Encoding: 52 52 20
Width: 357
Flags: W
LayerCount: 2
Back
Fore
SplineSet
321 350 m 0,0,1
 321 336 321 336 311 325 c 2,2,-1
 61 75 l 2,3,4
 50 64 50 64 36 64 c 128,-1,5
 22 64 22 64 11 75 c 128,-1,6
 0 86 0 86 0 100 c 2,7,-1
 0 600 l 2,8,9
 0 615 0 615 11 625 c 128,-1,10
 22 635 22 635 36 636 c 128,-1,11
 50 637 50 637 61 625 c 2,12,-1
 311 375 l 2,13,14
 321 365 321 365 321 350 c 0,0,1
EndSplineSet
EndChar

StartChar: dot-outline
Encoding: 53 53 21
Width: 857
Flags: W
LayerCount: 2
Back
Fore
SplineSet
571 350 m 0,0,1
 571 291 571 291 530 249 c 128,-1,2
 489 207 489 207 429 207 c 128,-1,3
 369 207 369 207 328 249 c 128,-1,4
 287 291 287 291 286 350 c 128,-1,5
 285 409 285 409 328 451 c 128,-1,6
 371 493 371 493 429 493 c 128,-1,7
 487 493 487 493 530 451 c 128,-1,8
 573 409 573 409 571 350 c 0,0,1
429 654 m 0,9,10
 346 654 346 654 276 613 c 128,-1,11
 206 572 206 572 166 502 c 128,-1,12
 126 432 126 432 125 350 c 128,-1,13
 124 268 124 268 166 198 c 128,-1,14
 208 128 208 128 276 87 c 128,-1,15
 344 46 344 46 429 46 c 128,-1,16
 514 46 514 46 581 87 c 128,-1,17
 648 128 648 128 691 198 c 128,-1,18
 734 268 734 268 732 350 c 128,-1,19
 730 432 730 432 691 502 c 128,-1,20
 652 572 652 572 581 613 c 128,-1,21
 510 654 510 654 429 654 c 0,9,10
857 350 m 1,22,23
 857 233 857 233 800 135 c 128,-1,24
 743 37 743 37 644 -21 c 128,-1,25
 545 -79 545 -79 429 -79 c 128,-1,26
 313 -79 313 -79 213 -21 c 128,-1,27
 113 37 113 37 58 135 c 128,-1,28
 3 233 3 233 0 350 c 128,-1,29
 -3 467 -3 467 58 565 c 128,-1,30
 119 663 119 663 213 721 c 128,-1,31
 307 779 307 779 429 779 c 128,-1,32
 551 779 551 779 644 721 c 128,-1,33
 737 663 737 663 800 565 c 128,-1,34
 863 467 863 467 857 350 c 1,22,23
EndSplineSet
EndChar

StartChar: asterisk
Encoding: 54 54 22
Width: 928
Flags: W
LayerCount: 2
Back
Fore
SplineSet
827 264 m 2,0,1
 853 250 853 250 860 221 c 128,-1,2
 867 192 867 192 853 166 c 2,3,-1
 818 105 l 2,4,5
 803 79 803 79 774 72 c 128,-1,6
 745 65 745 65 720 79 c 2,7,-1
 571 164 l 1,8,-1
 571 -7 l 2,9,10
 571 -36 571 -36 550 -57 c 128,-1,11
 529 -78 529 -78 500 -79 c 2,12,-1
 429 -79 l 2,13,14
 400 -79 400 -79 378 -57 c 128,-1,15
 356 -35 356 -35 357 -7 c 2,16,-1
 357 164 l 1,17,-1
 209 79 l 2,18,19
 183 64 183 64 154 72 c 128,-1,20
 125 80 125 80 111 105 c 2,21,-1
 75 166 l 2,22,23
 61 192 61 192 68 221 c 128,-1,24
 75 250 75 250 102 264 c 2,25,-1
 250 350 l 1,26,-1
 102 436 l 2,27,28
 76 450 76 450 68 479 c 128,-1,29
 60 508 60 508 75 534 c 2,30,-1
 111 595 l 2,31,32
 126 621 126 621 154 628 c 128,-1,33
 182 635 182 635 209 621 c 2,34,-1
 357 536 l 1,35,-1
 357 707 l 2,36,37
 357 736 357 736 378 757 c 128,-1,38
 399 778 399 778 429 779 c 2,39,-1
 500 779 l 2,40,41
 529 779 529 779 550 757 c 128,-1,42
 571 735 571 735 571 707 c 2,43,-1
 571 536 l 1,44,-1
 720 621 l 2,45,46
 746 636 746 636 774 628 c 128,-1,47
 802 620 802 620 818 595 c 2,48,-1
 853 534 l 2,49,50
 868 508 868 508 860 479 c 128,-1,51
 852 450 852 450 827 436 c 2,52,-1
 679 350 l 1,53,-1
 827 264 l 2,0,1
EndSplineSet
EndChar

StartChar: terminal
Encoding: 55 55 23
Width: 928
Flags: W
LayerCount: 2
Back
Fore
SplineSet
326 301 m 2,0,-1
 66 41 l 2,1,2
 61 36 61 36 54 36 c 128,-1,3
 47 36 47 36 41 41 c 2,4,-1
 13 69 l 2,5,6
 7 75 7 75 7 82 c 128,-1,7
 7 89 7 89 13 95 c 2,8,-1
 232 314 l 1,9,-1
 13 534 l 2,10,11
 7 539 7 539 7 546 c 128,-1,12
 7 553 7 553 13 559 c 2,13,-1
 41 587 l 2,14,15
 46 593 46 593 54 593 c 128,-1,16
 62 593 62 593 66 587 c 2,17,-1
 326 327 l 2,18,19
 332 322 332 322 332 314 c 128,-1,20
 332 306 332 306 326 301 c 2,0,-1
929 46 m 2,21,-1
 929 11 l 2,22,23
 929 3 929 3 924 -2 c 128,-1,24
 919 -7 919 -7 911 -7 c 2,25,-1
 375 -7 l 2,26,27
 367 -7 367 -7 362 -2 c 128,-1,28
 357 3 357 3 357 11 c 2,29,-1
 357 46 l 2,30,31
 357 54 357 54 362 59 c 128,-1,32
 367 64 367 64 375 64 c 2,33,-1
 911 64 l 2,34,35
 919 64 919 64 924 59 c 128,-1,36
 929 54 929 54 929 46 c 2,21,-1
EndSplineSet
EndChar

StartChar: screen
Encoding: 56 56 24
Width: 1000
Flags: W
LayerCount: 2
Back
Fore
SplineSet
0 600 m 2,0,1
 0 642 0 642 30 671 c 128,-1,2
 60 700 60 700 100 700 c 2,3,-1
 900 700 l 2,4,5
 942 700 942 700 971 671 c 128,-1,6
 1000 642 1000 642 1000 600 c 2,7,-1
 1000 100 l 2,8,9
 1000 60 1000 60 971 30 c 128,-1,10
 942 0 942 0 900 0 c 2,11,-1
 100 0 l 2,12,13
 60 0 60 0 30 30 c 128,-1,14
 0 60 0 60 0 100 c 2,15,-1
 0 600 l 2,0,1
900 600 m 1,16,-1
 100 600 l 1,17,-1
 100 100 l 1,18,-1
 900 100 l 1,19,-1
 900 600 l 1,16,-1
EndSplineSet
EndChar

StartChar: doc-text
Encoding: 57 57 25
Width: 700
Flags: W
LayerCount: 2
Back
Fore
SplineSet
212 308 m 1,0,-1
 212 398 l 1,1,-1
 492 398 l 1,2,-1
 492 308 l 1,3,-1
 212 308 l 1,0,-1
600 800 m 2,4,5
 642 800 642 800 671 771 c 128,-1,6
 700 742 700 742 700 700 c 2,7,-1
 700 0 l 2,8,9
 700 -40 700 -40 671 -70 c 128,-1,10
 642 -100 642 -100 600 -100 c 2,11,-1
 100 -100 l 2,12,13
 60 -100 60 -100 30 -70 c 128,-1,14
 0 -40 0 -40 0 0 c 2,15,-1
 0 700 l 2,16,17
 0 742 0 742 30 771 c 128,-1,18
 60 800 60 800 100 800 c 2,19,-1
 600 800 l 2,4,5
600 0 m 1,20,-1
 600 700 l 1,21,-1
 100 700 l 1,22,-1
 100 0 l 1,23,-1
 600 0 l 1,20,-1
490 592 m 1,24,-1
 490 504 l 1,25,-1
 210 504 l 1,26,-1
 210 592 l 1,27,-1
 490 592 l 1,24,-1
490 200 m 1,28,-1
 490 112 l 1,29,-1
 210 112 l 1,30,-1
 210 200 l 1,31,-1
 490 200 l 1,28,-1
EndSplineSet
EndChar

StartChar: down-bold
Encoding: 58 58 26
Width: 760
Flags: W
LayerCount: 2
Back
Fore
SplineSet
760 366 m 1,0,-1
 380 -14 l 1,1,-1
 0 366 l 1,2,-1
 192 366 l 1,3,-1
 192 716 l 1,4,-1
 568 716 l 1,5,-1
 568 366 l 1,6,-1
 760 366 l 1,0,-1
EndSplineSet
EndChar

StartChar: left-bold
Encoding: 59 59 27
Width: 730
Flags: W
LayerCount: 2
Back
Fore
SplineSet
378 730 m 1,0,-1
 378 540 l 1,1,-1
 730 540 l 1,2,-1
 730 162 l 1,3,-1
 378 162 l 1,4,-1
 378 -30 l 1,5,-1
 0 350 l 1,6,-1
 378 730 l 1,0,-1
EndSplineSet
EndChar

StartChar: right-bold
Encoding: 60 60 28
Width: 730
Flags: W
LayerCount: 2
Back
Fore
SplineSet
350 730 m 1,0,-1
 730 350 l 1,1,-1
 350 -30 l 1,2,-1
 350 162 l 1,3,-1
 0 162 l 1,4,-1
 0 540 l 1,5,-1
 350 540 l 1,6,-1
 350 730 l 1,0,-1
EndSplineSet
EndChar

StartChar: up-bold
Encoding: 61 61 29
Width: 760
Flags: W
LayerCount: 2
Back
Fore
SplineSet
760 336 m 1,0,-1
 568 336 l 1,1,-1
 568 -14 l 1,2,-1
 192 -14 l 1,3,-1
 192 336 l 1,4,-1
 0 336 l 1,5,-1
 380 716 l 1,6,-1
 760 336 l 1,0,-1
EndSplineSet
EndChar

StartChar: progress-1
Encoding: 62 62 30
Width: 1000
Flags: W
LayerCount: 2
Back
Fore
SplineSet
1000 450 m 1,0,-1
 1000 200 l 2,1,2
 1000 158 1000 158 971 129 c 128,-1,3
 942 100 942 100 900 100 c 2,4,-1
 100 100 l 2,5,6
 60 100 60 100 30 129 c 128,-1,7
 0 158 0 158 0 200 c 2,8,-1
 0 500 l 2,9,10
 0 540 0 540 30 570 c 128,-1,11
 60 600 60 600 100 600 c 2,12,-1
 900 600 l 2,13,14
 942 600 942 600 971 570 c 128,-1,15
 1000 540 1000 540 1000 500 c 2,16,-1
 1000 450 l 1,0,-1
900 200 m 1,17,-1
 900 500 l 1,18,-1
 100 500 l 1,19,-1
 100 200 l 1,20,-1
 900 200 l 1,17,-1
150 250 m 1,21,-1
 150 448 l 1,22,-1
 350 448 l 1,23,-1
 350 250 l 1,24,-1
 150 250 l 1,21,-1
EndSplineSet
EndChar

StartChar: progress-2
Encoding: 63 63 31
Width: 1000
Flags: W
LayerCount: 2
Back
Fore
SplineSet
1000 450 m 1,0,-1
 1000 200 l 2,1,2
 1000 158 1000 158 971 129 c 128,-1,3
 942 100 942 100 900 100 c 2,4,-1
 100 100 l 2,5,6
 60 100 60 100 30 129 c 128,-1,7
 0 158 0 158 0 200 c 2,8,-1
 0 500 l 2,9,10
 0 540 0 540 30 570 c 128,-1,11
 60 600 60 600 100 600 c 2,12,-1
 900 600 l 2,13,14
 942 600 942 600 971 570 c 128,-1,15
 1000 540 1000 540 1000 500 c 2,16,-1
 1000 450 l 1,0,-1
900 200 m 1,17,-1
 900 500 l 1,18,-1
 100 500 l 1,19,-1
 100 200 l 1,20,-1
 900 200 l 1,17,-1
150 250 m 1,21,-1
 150 448 l 1,22,-1
 350 448 l 1,23,-1
 350 250 l 1,24,-1
 150 250 l 1,21,-1
400 250 m 1,25,-1
 400 448 l 1,26,-1
 600 448 l 1,27,-1
 600 250 l 1,28,-1
 400 250 l 1,25,-1
EndSplineSet
EndChar

StartChar: progress-3
Encoding: 64 64 32
Width: 1000
Flags: W
LayerCount: 2
Back
Fore
SplineSet
1000 450 m 1,0,-1
 1000 200 l 2,1,2
 1000 158 1000 158 971 129 c 128,-1,3
 942 100 942 100 900 100 c 2,4,-1
 100 100 l 2,5,6
 60 100 60 100 30 129 c 128,-1,7
 0 158 0 158 0 200 c 2,8,-1
 0 500 l 2,9,10
 0 540 0 540 30 570 c 128,-1,11
 60 600 60 600 100 600 c 2,12,-1
 900 600 l 2,13,14
 942 600 942 600 971 570 c 128,-1,15
 1000 540 1000 540 1000 500 c 2,16,-1
 1000 450 l 1,0,-1
900 200 m 1,17,-1
 900 500 l 1,18,-1
 100 500 l 1,19,-1
 100 200 l 1,20,-1
 900 200 l 1,17,-1
150 250 m 1,21,-1
 150 448 l 1,22,-1
 350 448 l 1,23,-1
 350 250 l 1,24,-1
 150 250 l 1,21,-1
400 250 m 1,25,-1
 400 448 l 1,26,-1
 600 448 l 1,27,-1
 600 250 l 1,28,-1
 400 250 l 1,25,-1
650 448 m 1,29,-1
 850 448 l 1,30,-1
 850 250 l 1,31,-1
 650 250 l 1,32,-1
 650 448 l 1,29,-1
EndSplineSet
EndChar

StartChar: flow-cascade
Encoding: 65 65 33
Width: 640
Flags: W
LayerCount: 2
Back
Fore
SplineSet
520 120 m 4,0,1
 570 120 570 120 605 85 c 132,-1,2
 640 50 640 50 640 0 c 132,-1,3
 640 -50 640 -50 605 -85 c 132,-1,4
 570 -120 570 -120 520 -120 c 4,5,6
 440 -120 440 -120 410 -46 c 5,7,-1
 246 -46 l 6,8,9
 158 -46 158 -46 115 8 c 132,-1,10
 72 62 72 62 72 126 c 6,11,-1
 72 590 l 5,12,13
 0 624 0 624 0 700 c 4,14,15
 0 750 0 750 35 785 c 132,-1,16
 70 820 70 820 120 820 c 132,-1,17
 170 820 170 820 205 785 c 132,-1,18
 240 750 240 750 240 700 c 4,19,20
 240 624 240 624 168 590 c 5,21,-1
 168 476 l 6,22,23
 168 398 168 398 246 398 c 6,24,-1
 410 398 l 5,25,26
 440 470 440 470 520 470 c 4,27,28
 570 470 570 470 605 435 c 132,-1,29
 640 400 640 400 640 350 c 132,-1,30
 640 300 640 300 605 265 c 132,-1,31
 570 230 570 230 520 230 c 4,32,33
 440 230 440 230 410 304 c 5,34,-1
 246 304 l 6,35,36
 204 304 204 304 168 320 c 5,37,-1
 168 126 l 6,38,39
 168 48 168 48 246 48 c 6,40,-1
 410 48 l 5,41,42
 440 120 440 120 520 120 c 4,0,1
520 420 m 260,43,44
 492 420 492 420 471 400 c 132,-1,45
 450 380 450 380 450 351 c 132,-1,46
 450 322 450 322 471 302 c 132,-1,47
 492 282 492 282 520 282 c 132,-1,48
 548 282 548 282 569 302 c 132,-1,49
 590 322 590 322 590 351 c 132,-1,50
 590 380 590 380 569 400 c 132,-1,51
 548 420 548 420 520 420 c 260,43,44
50 700 m 4,52,53
 50 672 50 672 71 652 c 132,-1,54
 92 632 92 632 120 632 c 132,-1,55
 148 632 148 632 169 652 c 132,-1,56
 190 672 190 672 190 701 c 132,-1,57
 190 730 190 730 169 750 c 132,-1,58
 148 770 148 770 120 770 c 132,-1,59
 92 770 92 770 71 750 c 132,-1,60
 50 730 50 730 50 700 c 4,52,53
520 -68 m 260,61,62
 548 -68 548 -68 569 -48 c 132,-1,63
 590 -28 590 -28 590 1 c 132,-1,64
 590 30 590 30 569 50 c 132,-1,65
 548 70 548 70 520 70 c 132,-1,66
 492 70 492 70 471 50 c 132,-1,67
 450 30 450 30 450 1 c 132,-1,68
 450 -28 450 -28 471 -48 c 132,-1,69
 492 -68 492 -68 520 -68 c 260,61,62
EndSplineSet
EndChar

StartChar: flow-branch
Encoding: 66 66 34
Width: 640
Flags: W
LayerCount: 2
Back
Fore
SplineSet
640 650 m 0,0,1
 640 570 640 570 566 540 c 1,2,3
 560 482 560 482 538 439 c 128,-1,4
 516 396 516 396 477 370 c 128,-1,5
 438 344 438 344 409 332 c 128,-1,6
 380 320 380 320 334 306 c 0,7,8
 292 292 292 292 271 284 c 128,-1,9
 250 276 250 276 224 260 c 128,-1,10
 198 244 198 244 186 220 c 128,-1,11
 174 196 174 196 170 160 c 1,12,13
 240 130 240 130 240 50 c 0,14,15
 240 0 240 0 205 -35 c 128,-1,16
 170 -70 170 -70 120 -70 c 128,-1,17
 70 -70 70 -70 35 -35 c 128,-1,18
 0 0 0 0 0 50 c 0,19,20
 0 128 0 128 72 162 c 1,21,-1
 72 540 l 1,22,23
 0 574 0 574 0 650 c 0,24,25
 0 700 0 700 35 735 c 128,-1,26
 70 770 70 770 120 770 c 128,-1,27
 170 770 170 770 205 735 c 128,-1,28
 240 700 240 700 240 650 c 0,29,30
 240 574 240 574 168 540 c 1,31,-1
 168 336 l 1,32,33
 208 366 208 366 306 396 c 0,34,35
 364 414 364 414 390 425 c 128,-1,36
 416 436 416 436 441 466 c 128,-1,37
 466 496 466 496 470 542 c 1,38,39
 400 574 400 574 400 650 c 0,40,41
 400 700 400 700 435 735 c 128,-1,42
 470 770 470 770 520 770 c 128,-1,43
 570 770 570 770 605 735 c 128,-1,44
 640 700 640 700 640 650 c 0,0,1
52 650 m 0,45,46
 52 622 52 622 72 602 c 128,-1,47
 92 582 92 582 120 582 c 128,-1,48
 148 582 148 582 169 602 c 128,-1,49
 190 622 190 622 190 651 c 128,-1,50
 190 680 190 680 169 700 c 128,-1,51
 148 720 148 720 120 720 c 128,-1,52
 92 720 92 720 72 700 c 128,-1,53
 52 680 52 680 52 650 c 0,45,46
120 -18 m 256,54,55
 148 -18 148 -18 169 2 c 128,-1,56
 190 22 190 22 190 51 c 128,-1,57
 190 80 190 80 169 100 c 128,-1,58
 148 120 148 120 120 120 c 128,-1,59
 92 120 92 120 72 100 c 128,-1,60
 52 80 52 80 52 51 c 128,-1,61
 52 22 52 22 72 2 c 128,-1,62
 92 -18 92 -18 120 -18 c 256,54,55
520 582 m 256,63,64
 548 582 548 582 569 602 c 128,-1,65
 590 622 590 622 590 651 c 128,-1,66
 590 680 590 680 569 700 c 128,-1,67
 548 720 548 720 520 720 c 128,-1,68
 492 720 492 720 472 700 c 128,-1,69
 452 680 452 680 452 651 c 128,-1,70
 452 622 452 622 472 602 c 128,-1,71
 492 582 492 582 520 582 c 256,63,64
EndSplineSet
EndChar

StartChar: flow-tree
Encoding: 67 67 35
Width: 940
Flags: W
LayerCount: 2
Back
Fore
SplineSet
868 112 m 1,0,1
 940 78 940 78 940 0 c 0,2,3
 940 -50 940 -50 905 -85 c 128,-1,4
 870 -120 870 -120 820 -120 c 128,-1,5
 770 -120 770 -120 735 -85 c 128,-1,6
 700 -50 700 -50 700 0 c 0,7,8
 700 78 700 78 772 112 c 1,9,-1
 772 226 l 2,10,11
 772 304 772 304 696 304 c 2,12,-1
 596 304 l 2,13,14
 552 304 552 304 518 316 c 1,15,-1
 518 112 l 1,16,17
 590 78 590 78 590 0 c 0,18,19
 590 -50 590 -50 555 -85 c 128,-1,20
 520 -120 520 -120 470 -120 c 128,-1,21
 420 -120 420 -120 385 -85 c 128,-1,22
 350 -50 350 -50 350 0 c 0,23,24
 350 78 350 78 422 112 c 1,25,-1
 422 316 l 1,26,27
 392 304 392 304 346 304 c 2,28,-1
 246 304 l 2,29,30
 212 304 212 304 193 285 c 128,-1,31
 174 266 174 266 171 252 c 128,-1,32
 168 238 168 238 168 226 c 2,33,-1
 168 112 l 1,34,35
 240 78 240 78 240 0 c 0,36,37
 240 -50 240 -50 205 -85 c 128,-1,38
 170 -120 170 -120 120 -120 c 128,-1,39
 70 -120 70 -120 35 -85 c 128,-1,40
 0 -50 0 -50 0 0 c 0,41,42
 0 78 0 78 72 112 c 1,43,-1
 72 226 l 2,44,45
 72 290 72 290 115 344 c 128,-1,46
 158 398 158 398 246 398 c 2,47,-1
 346 398 l 2,48,49
 422 398 422 398 422 450 c 2,50,-1
 422 590 l 1,51,52
 350 624 350 624 350 700 c 0,53,54
 350 750 350 750 385 785 c 128,-1,55
 420 820 420 820 470 820 c 128,-1,56
 520 820 520 820 555 785 c 128,-1,57
 590 750 590 750 590 700 c 0,58,59
 590 624 590 624 518 590 c 1,60,-1
 518 450 l 2,61,62
 518 398 518 398 596 398 c 2,63,-1
 696 398 l 2,64,65
 782 398 782 398 825 344 c 128,-1,66
 868 290 868 290 868 226 c 2,67,-1
 868 112 l 1,0,1
190 0 m 0,68,69
 190 30 190 30 169 50 c 128,-1,70
 148 70 148 70 120 70 c 128,-1,71
 92 70 92 70 72 50 c 128,-1,72
 52 30 52 30 52 1 c 128,-1,73
 52 -28 52 -28 72 -48 c 128,-1,74
 92 -68 92 -68 120 -68 c 128,-1,75
 148 -68 148 -68 169 -48 c 128,-1,76
 190 -28 190 -28 190 0 c 0,68,69
402 700 m 0,77,78
 402 672 402 672 422 652 c 128,-1,79
 442 632 442 632 470 632 c 128,-1,80
 498 632 498 632 519 652 c 128,-1,81
 540 672 540 672 540 701 c 128,-1,82
 540 730 540 730 519 750 c 128,-1,83
 498 770 498 770 470 770 c 128,-1,84
 442 770 442 770 422 750 c 128,-1,85
 402 730 402 730 402 700 c 0,77,78
540 0 m 0,86,87
 540 30 540 30 519 50 c 128,-1,88
 498 70 498 70 470 70 c 128,-1,89
 442 70 442 70 422 50 c 128,-1,90
 402 30 402 30 402 1 c 128,-1,91
 402 -28 402 -28 422 -48 c 128,-1,92
 442 -68 442 -68 470 -68 c 128,-1,93
 498 -68 498 -68 519 -48 c 128,-1,94
 540 -28 540 -28 540 0 c 0,86,87
820 -68 m 256,95,96
 848 -68 848 -68 869 -48 c 128,-1,97
 890 -28 890 -28 890 1 c 128,-1,98
 890 30 890 30 869 50 c 128,-1,99
 848 70 848 70 820 70 c 128,-1,100
 792 70 792 70 772 50 c 128,-1,101
 752 30 752 30 752 1 c 128,-1,102
 752 -28 752 -28 772 -48 c 128,-1,103
 792 -68 792 -68 820 -68 c 256,95,96
EndSplineSet
EndChar

StartChar: flow-line
Encoding: 68 68 36
Width: 240
Flags: W
LayerCount: 2
Back
Fore
SplineSet
168 162 m 1,0,1
 240 128 240 128 240 50 c 0,2,3
 240 0 240 0 205 -35 c 128,-1,4
 170 -70 170 -70 120 -70 c 128,-1,5
 70 -70 70 -70 35 -35 c 128,-1,6
 0 0 0 0 0 50 c 0,7,8
 0 128 0 128 72 162 c 1,9,-1
 72 540 l 1,10,11
 0 574 0 574 0 650 c 0,12,13
 0 700 0 700 35 735 c 128,-1,14
 70 770 70 770 120 770 c 128,-1,15
 170 770 170 770 205 735 c 128,-1,16
 240 700 240 700 240 650 c 0,17,18
 240 574 240 574 168 540 c 1,19,-1
 168 162 l 1,0,1
52 650 m 0,20,21
 52 622 52 622 72 602 c 128,-1,22
 92 582 92 582 120 582 c 128,-1,23
 148 582 148 582 169 602 c 128,-1,24
 190 622 190 622 190 651 c 128,-1,25
 190 680 190 680 169 700 c 128,-1,26
 148 720 148 720 120 720 c 128,-1,27
 92 720 92 720 72 700 c 128,-1,28
 52 680 52 680 52 650 c 0,20,21
120 -18 m 256,29,30
 148 -18 148 -18 169 2 c 128,-1,31
 190 22 190 22 190 51 c 128,-1,32
 190 80 190 80 169 100 c 128,-1,33
 148 120 148 120 120 120 c 128,-1,34
 92 120 92 120 72 100 c 128,-1,35
 52 80 52 80 52 51 c 128,-1,36
 52 22 52 22 72 2 c 128,-1,37
 92 -18 92 -18 120 -18 c 256,29,30
EndSplineSet
EndChar

StartChar: flow-parallel
Encoding: 69 69 37
Width: 640
Flags: W
LayerCount: 2
Back
Fore
SplineSet
240 650 m 0,0,1
 240 574 240 574 168 540 c 1,2,-1
 168 162 l 1,3,4
 240 128 240 128 240 50 c 0,5,6
 240 0 240 0 205 -35 c 128,-1,7
 170 -70 170 -70 120 -70 c 128,-1,8
 70 -70 70 -70 35 -35 c 128,-1,9
 0 0 0 0 0 50 c 0,10,11
 0 128 0 128 72 162 c 1,12,-1
 72 540 l 1,13,14
 0 574 0 574 0 650 c 0,15,16
 0 700 0 700 35 735 c 128,-1,17
 70 770 70 770 120 770 c 128,-1,18
 170 770 170 770 205 735 c 128,-1,19
 240 700 240 700 240 650 c 0,0,1
190 50 m 0,20,21
 190 80 190 80 169 100 c 128,-1,22
 148 120 148 120 120 120 c 128,-1,23
 92 120 92 120 72 100 c 128,-1,24
 52 80 52 80 52 51 c 128,-1,25
 52 22 52 22 72 2 c 128,-1,26
 92 -18 92 -18 120 -18 c 128,-1,27
 148 -18 148 -18 169 2 c 128,-1,28
 190 22 190 22 190 50 c 0,20,21
120 582 m 256,29,30
 148 582 148 582 169 602 c 128,-1,31
 190 622 190 622 190 651 c 128,-1,32
 190 680 190 680 169 700 c 128,-1,33
 148 720 148 720 120 720 c 128,-1,34
 92 720 92 720 72 700 c 128,-1,35
 52 680 52 680 52 651 c 128,-1,36
 52 622 52 622 72 602 c 128,-1,37
 92 582 92 582 120 582 c 256,29,30
568 162 m 1,38,39
 640 128 640 128 640 50 c 0,40,41
 640 0 640 0 605 -35 c 128,-1,42
 570 -70 570 -70 520 -70 c 128,-1,43
 470 -70 470 -70 435 -35 c 128,-1,44
 400 0 400 0 400 50 c 0,45,46
 400 128 400 128 472 162 c 1,47,-1
 472 540 l 1,48,49
 400 574 400 574 400 650 c 0,50,51
 400 700 400 700 435 735 c 128,-1,52
 470 770 470 770 520 770 c 128,-1,53
 570 770 570 770 605 735 c 128,-1,54
 640 700 640 700 640 650 c 0,55,56
 640 574 640 574 568 540 c 1,57,-1
 568 162 l 1,38,39
452 650 m 0,58,59
 452 622 452 622 472 602 c 128,-1,60
 492 582 492 582 520 582 c 128,-1,61
 548 582 548 582 569 602 c 128,-1,62
 590 622 590 622 590 651 c 128,-1,63
 590 680 590 680 569 700 c 128,-1,64
 548 720 548 720 520 720 c 128,-1,65
 492 720 492 720 472 700 c 128,-1,66
 452 680 452 680 452 650 c 0,58,59
520 -18 m 256,67,68
 548 -18 548 -18 569 2 c 128,-1,69
 590 22 590 22 590 51 c 128,-1,70
 590 80 590 80 569 100 c 128,-1,71
 548 120 548 120 520 120 c 128,-1,72
 492 120 492 120 472 100 c 128,-1,73
 452 80 452 80 452 51 c 128,-1,74
 452 22 452 22 472 2 c 128,-1,75
 492 -18 492 -18 520 -18 c 256,67,68
EndSplineSet
EndChar

StartChar: grid
Encoding: 70 70 38
Width: 970
Flags: W
LayerCount: 2
Back
Fore
SplineSet
0 -22 m 1,0,-1
 0 722 l 1,1,-1
 970 722 l 1,2,-1
 970 -22 l 1,3,-1
 0 -22 l 1,0,-1
519 430 m 1,4,-1
 519 271 l 1,5,-1
 678 271 l 1,6,-1
 678 430 l 1,7,-1
 519 430 l 1,4,-1
519 46 m 1,8,-1
 678 46 l 1,9,-1
 678 203 l 1,10,-1
 519 203 l 1,11,-1
 519 46 l 1,8,-1
678 655 m 1,12,-1
 519 655 l 1,13,-1
 519 497 l 1,14,-1
 678 497 l 1,15,-1
 678 655 l 1,12,-1
903 271 m 1,16,-1
 903 430 l 1,17,-1
 745 430 l 1,18,-1
 745 271 l 1,19,-1
 903 271 l 1,16,-1
745 46 m 1,20,-1
 903 46 l 1,21,-1
 903 203 l 1,22,-1
 745 203 l 1,23,-1
 745 46 l 1,20,-1
903 497 m 1,24,-1
 903 655 l 1,25,-1
 745 655 l 1,26,-1
 745 497 l 1,27,-1
 903 497 l 1,24,-1
68 430 m 1,28,-1
 68 271 l 1,29,-1
 226 271 l 1,30,-1
 226 430 l 1,31,-1
 68 430 l 1,28,-1
68 46 m 1,32,-1
 226 46 l 1,33,-1
 226 203 l 1,34,-1
 68 203 l 1,35,-1
 68 46 l 1,32,-1
226 655 m 1,36,-1
 68 655 l 1,37,-1
 68 497 l 1,38,-1
 226 497 l 1,39,-1
 226 655 l 1,36,-1
451 271 m 1,40,-1
 451 430 l 1,41,-1
 294 430 l 1,42,-1
 294 271 l 1,43,-1
 451 271 l 1,40,-1
294 46 m 1,44,-1
 451 46 l 1,45,-1
 451 203 l 1,46,-1
 294 203 l 1,47,-1
 294 46 l 1,44,-1
451 497 m 1,48,-1
 451 655 l 1,49,-1
 294 655 l 1,50,-1
 294 497 l 1,51,-1
 451 497 l 1,48,-1
EndSplineSet
EndChar

StartChar: user
Encoding: 71 71 39
Width: 1024
Flags: W
LayerCount: 2
Back
Fore
SplineSet
0 -119 m 1,0,1
 0 -110 0 -110 1 -96 c 128,-1,2
 2 -82 2 -82 12 -49 c 128,-1,3
 22 -16 22 -16 39 0.5 c 128,-1,4
 56 17 56 17 107 38 c 128,-1,5
 158 59 158 59 222 81 c 128,-1,6
 286 103 286 103 315 119 c 0,7,8
 353 138 353 138 374 175 c 128,-1,9
 395 212 395 212 394 251 c 0,10,11
 394 278 394 278 362 314 c 0,12,13
 329 352 329 352 309 416 c 128,-1,14
 289 480 289 480 289 565 c 0,15,16
 289 629 289 629 307 678 c 128,-1,17
 325 727 325 727 356 758 c 128,-1,18
 387 789 387 789 427 803 c 128,-1,19
 467 817 467 817 512 818 c 128,-1,20
 557 819 557 819 597 803 c 128,-1,21
 637 787 637 787 668 758 c 128,-1,22
 699 729 699 729 717 678 c 128,-1,23
 735 627 735 627 735 565 c 0,24,25
 735 481 735 481 715 416 c 128,-1,26
 695 351 695 351 662.5 314 c 128,-1,27
 630 277 630 277 630 251 c 0,28,29
 630 212 630 212 651 175 c 128,-1,30
 672 138 672 138 710 119 c 0,31,32
 739 104 739 104 803 81 c 128,-1,33
 867 58 867 58 917 38 c 128,-1,34
 967 18 967 18 984.5 0.5 c 128,-1,35
 1002 -17 1002 -17 1012 -47 c 128,-1,36
 1022 -77 1022 -77 1023 -98 c 2,37,-1
 1024 -119 l 1,38,-1
 0 -119 l 1,0,1
EndSplineSet
EndChar

StartChar: users
Encoding: 72 72 40
Width: 1201
Flags: W
LayerCount: 2
Back
Fore
SplineSet
0 49 m 1,0,1
 20 56 20 56 60 71 c 2,2,-1
 129 97 l 2,3,4
 158 108 158 108 179 119 c 0,5,6
 216 138 216 138 236 175 c 128,-1,7
 256 212 256 212 257 251 c 0,8,9
 257 278 257 278 226 315 c 0,10,11
 207 336 207 336 193 375 c 1,12,13
 148 393 148 393 148 451 c 0,14,15
 148 494 148 494 162 512 c 1,16,17
 157 551 157 551 153 594 c 0,18,19
 148 649 148 649 179 702 c 128,-1,20
 210 755 210 755 263 786 c 128,-1,21
 316 817 316 817 373 818 c 0,22,23
 416 818 416 818 458 799 c 128,-1,24
 500 780 500 780 531 749 c 128,-1,25
 562 718 562 718 579 677 c 128,-1,26
 596 636 596 636 593 594 c 0,27,28
 589 539 589 539 585 512 c 1,29,30
 599 493 599 493 599 451 c 0,31,32
 599 393 599 393 554 375 c 1,33,34
 539 334 539 334 522 315 c 0,35,36
 490 278 490 278 490 251 c 0,37,38
 490 212 490 212 510 175 c 128,-1,39
 530 138 530 138 568 119 c 0,40,41
 597 104 597 104 660 81 c 128,-1,42
 723 58 723 58 773 38 c 128,-1,43
 823 18 823 18 839 0 c 0,44,45
 857 -17 857 -17 867 -47 c 128,-1,46
 877 -77 877 -77 877 -98 c 2,47,-1
 878 -119 l 1,48,-1
 0 -119 l 1,49,-1
 0 49 l 1,0,1
705 348 m 0,50,51
 705 382 705 382 717 398 c 1,52,53
 712 430 712 430 710 465 c 0,54,55
 706 510 706 510 731 554 c 128,-1,56
 756 598 756 598 800 626 c 128,-1,57
 844 654 844 654 890 653 c 128,-1,58
 936 652 936 652 979 626 c 128,-1,59
 1022 600 1022 600 1048 554 c 128,-1,60
 1074 508 1074 508 1070 465 c 0,61,62
 1068 430 1068 430 1062 398 c 1,63,64
 1074 382 1074 382 1074 348 c 0,65,66
 1074 300 1074 300 1038 286 c 1,67,68
 1026 253 1026 253 1011 236 c 0,69,70
 1002 226 1002 226 998 220 c 128,-1,71
 994 214 994 214 989 204 c 128,-1,72
 984 194 984 194 985 184 c 0,73,74
 985 152 985 152 1002 122 c 128,-1,75
 1019 92 1019 92 1049 76 c 0,76,77
 1066 67 1066 67 1091 57 c 128,-1,78
 1116 47 1116 47 1151 35 c 128,-1,79
 1186 23 1186 23 1201 16 c 1,80,-1
 1201 -119 l 1,81,-1
 947 -119 l 1,82,-1
 947 -108 l 2,83,84
 947 -101 947 -101 944 -82 c 128,-1,85
 941 -63 941 -63 937 -46 c 128,-1,86
 933 -29 933 -29 922 -8 c 128,-1,87
 911 13 911 13 899 25 c 0,88,89
 876 50 876 50 846 69 c 128,-1,90
 816 88 816 88 767 106 c 1,91,92
 794 140 794 140 794 184 c 0,93,94
 794 194 794 194 789 204 c 2,95,-1
 781 220 l 2,96,97
 778 226 778 226 769 236 c 0,98,99
 755 251 755 251 742 285 c 1,100,101
 705 301 705 301 705 348 c 0,50,51
EndSplineSet
EndChar

StartChar: web
Encoding: 73 73 41
Width: 937
Flags: W
LayerCount: 2
Back
Fore
SplineSet
0 350 m 0,0,1
 0 445 0 445 37 532 c 128,-1,2
 74 619 74 619 137 681 c 128,-1,3
 200 743 200 743 286 781 c 128,-1,4
 372 819 372 819 469 818 c 0,5,6
 553 818 553 818 630 790 c 128,-1,7
 707 762 707 762 770 708 c 0,8,9
 811 677 811 677 841 633 c 0,10,11
 937 507 937 507 937 350 c 0,12,13
 937 255 937 255 900 168 c 128,-1,14
 863 81 863 81 800 18 c 128,-1,15
 737 -45 737 -45 651 -82 c 128,-1,16
 565 -119 565 -119 469 -119 c 128,-1,17
 373 -119 373 -119 286 -82 c 128,-1,18
 199 -45 199 -45 137 18 c 128,-1,19
 75 81 75 81 37 168 c 128,-1,20
 -1 255 -1 255 0 350 c 0,0,1
94 412 m 1,21,22
 144 426 144 426 196 426 c 2,23,-1
 202 426 l 1,24,-1
 203 421 l 2,25,26
 204 417 204 417 205 415 c 0,27,28
 135 344 135 344 102 251 c 1,29,30
 113 208 113 208 135 167 c 1,31,32
 157 286 157 286 242 375 c 1,33,34
 259 365 259 365 279 365 c 0,35,36
 319 365 319 365 344 398 c 1,37,38
 411 372 411 372 465 324 c 128,-1,39
 519 276 519 276 554 212 c 1,40,41
 529 188 529 188 529 154 c 0,42,43
 529 125 529 125 548 102 c 1,44,45
 494 22 494 22 411 -26 c 1,46,47
 440 -30 440 -30 469 -30 c 0,48,49
 486 -30 486 -30 503 -29 c 1,50,51
 559 17 559 17 596 75 c 1,52,-1
 599 75 l 1,53,54
 604 44 604 44 604 19 c 2,55,-1
 602 -6 l 1,56,57
 633 6 633 6 659 21 c 1,58,59
 659 53 659 53 653 87 c 1,60,61
 690 113 690 113 690 153 c 128,-1,62
 690 193 690 193 658 217 c 1,63,64
 672 272 672 272 672 327 c 0,65,66
 672 394 672 394 651 464 c 1,67,68
 658 471 658 471 663 480 c 1,69,70
 774 443 774 443 849 352 c 1,71,72
 849 397 849 397 838 442 c 1,73,74
 766 504 766 504 676 533 c 1,75,76
 673 563 673 563 651 584 c 128,-1,77
 629 605 629 605 597 605 c 0,78,79
 588 605 588 605 579 603 c 1,80,81
 520 682 520 682 436 729 c 1,82,83
 392 725 392 725 347 710 c 1,84,85
 461 669 461 669 534 574 c 1,86,87
 528 566 528 566 523 555 c 1,88,89
 419 553 419 553 329 507 c 1,90,91
 307 525 307 525 279 525 c 0,92,93
 255 525 255 525 236 513 c 128,-1,94
 217 501 217 501 207 481 c 1,95,-1
 196 481 l 2,96,97
 155 481 155 481 108 472 c 1,98,99
 99 444 99 444 94 412 c 1,21,22
358 459 m 1,100,101
 438 498 438 498 521 500 c 1,102,103
 529 476 529 476 550 460 c 128,-1,104
 571 444 571 444 597 444 c 2,105,-1
 599 444 l 1,106,107
 617 384 617 384 617 327 c 0,108,109
 617 279 617 279 605 234 c 1,110,111
 566 308 566 308 502 364 c 128,-1,112
 438 420 438 420 359 450 c 1,113,-1
 359 455 l 2,114,115
 359 458 359 458 358 459 c 1,100,101
EndSplineSet
EndChar

StartChar: reply
Encoding: 74 74 42
Width: 1185
Flags: W
LayerCount: 2
Back
Fore
SplineSet
501 850 m 1,0,-1
 501 531 l 1,1,2
 611 516 611 516 705 486 c 128,-1,3
 799 456 799 456 864 418 c 128,-1,4
 929 380 929 380 982 336 c 128,-1,5
 1035 292 1035 292 1068 245 c 128,-1,6
 1101 198 1101 198 1125 155 c 128,-1,7
 1149 112 1149 112 1160 71 c 2,8,-1
 1178 2 l 2,9,10
 1185 -26 1185 -26 1184 -45 c 2,11,-1
 1185 -62 l 1,12,13
 1179 -51 1179 -51 1166 -33 c 128,-1,14
 1153 -15 1153 -15 1099 31 c 128,-1,15
 1045 77 1045 77 974 107 c 128,-1,16
 903 137 903 137 778 159 c 0,17,18
 701 171 701 171 616 171 c 0,19,20
 561 171 561 171 501 166 c 1,21,-1
 501 -150 l 1,22,-1
 0 349 l 1,23,-1
 501 850 l 1,0,-1
EndSplineSet
EndChar

StartChar: lines
Encoding: 75 75 43
Width: 1000
Flags: W
LayerCount: 2
Back
Fore
SplineSet
1000 100 m 2,0,-1
 1000 29 l 2,1,2
 1000 14 1000 14 989 4 c 128,-1,3
 978 -6 978 -6 964 -7 c 2,4,-1
 36 -7 l 2,5,6
 21 -7 21 -7 11 4 c 128,-1,7
 1 15 1 15 0 29 c 2,8,-1
 0 100 l 2,9,10
 0 115 0 115 11 125 c 128,-1,11
 22 135 22 135 36 136 c 2,12,-1
 964 136 l 2,13,14
 979 136 979 136 989 125 c 128,-1,15
 999 114 999 114 1000 100 c 2,0,-1
1000 314 m 2,16,-1
 1000 243 l 2,17,18
 1000 228 1000 228 989 218 c 128,-1,19
 978 208 978 208 964 207 c 2,20,-1
 36 207 l 2,21,22
 21 207 21 207 11 218 c 128,-1,23
 1 229 1 229 0 243 c 2,24,-1
 0 314 l 2,25,26
 0 329 0 329 11 339 c 128,-1,27
 22 349 22 349 36 350 c 2,28,-1
 964 350 l 2,29,30
 979 350 979 350 989 339 c 128,-1,31
 999 328 999 328 1000 314 c 2,16,-1
1000 529 m 2,32,-1
 1000 457 l 2,33,34
 1000 443 1000 443 989 432 c 128,-1,35
 978 421 978 421 964 421 c 2,36,-1
 36 421 l 2,37,38
 21 421 21 421 11 432 c 128,-1,39
 1 443 1 443 0 457 c 2,40,-1
 0 529 l 2,41,42
 0 543 0 543 11 554 c 128,-1,43
 22 565 22 565 36 564 c 2,44,-1
 964 564 l 2,45,46
 979 564 979 564 989 554 c 128,-1,47
 999 544 999 544 1000 529 c 2,32,-1
1000 743 m 2,48,-1
 1000 671 l 2,49,50
 1000 657 1000 657 989 646 c 128,-1,51
 978 635 978 635 964 636 c 2,52,-1
 36 636 l 2,53,54
 21 636 21 636 11 646 c 128,-1,55
 1 656 1 656 0 671 c 2,56,-1
 0 743 l 2,57,58
 0 757 0 757 11 768 c 128,-1,59
 22 779 22 779 36 779 c 2,60,-1
 964 779 l 2,61,62
 979 779 979 779 989 768 c 128,-1,63
 999 757 999 757 1000 743 c 2,48,-1
EndSplineSet
EndChar

StartChar: air
Encoding: 76 76 44
Width: 905
Flags: W
LayerCount: 2
Back
Fore
SplineSet
85 534 m 0,0,1
 69 520 69 520 49 522 c 128,-1,2
 29 524 29 524 15 539 c 128,-1,3
 1 554 1 554 3 576 c 128,-1,4
 5 598 5 598 21 612 c 0,5,6
 69 652 69 652 100 672 c 128,-1,7
 131 692 131 692 189 712 c 128,-1,8
 247 732 247 732 318 716 c 128,-1,9
 389 700 389 700 477 650 c 128,-1,10
 565 600 565 600 632 597 c 128,-1,11
 699 594 699 594 732 613 c 128,-1,12
 765 632 765 632 821 680 c 0,13,14
 859 710 859 710 891 674 c 0,15,16
 923 634 923 634 885 602 c 0,17,18
 763 492 763 492 651 492 c 0,19,20
 551 492 551 492 429 562 c 0,21,22
 361 600 361 600 310 614 c 128,-1,23
 259 628 259 628 217 614 c 128,-1,24
 175 600 175 600 152 585 c 128,-1,25
 129 570 129 570 85 534 c 0,0,1
821 424 m 0,26,27
 859 456 859 456 891 417 c 128,-1,28
 923 378 923 378 885 346 c 0,29,30
 845 312 845 312 820 293 c 128,-1,31
 795 274 795 274 748 255 c 128,-1,32
 701 236 701 236 651 236 c 0,33,34
 555 236 555 236 429 306 c 0,35,36
 361 344 361 344 310 358 c 128,-1,37
 259 372 259 372 217 358 c 128,-1,38
 175 344 175 344 152 329 c 128,-1,39
 129 314 129 314 85 278 c 0,40,41
 71 264 71 264 50 266 c 128,-1,42
 29 268 29 268 15 284 c 0,43,44
 -17 324 -17 324 21 357 c 128,-1,45
 59 390 59 390 81 406 c 128,-1,46
 103 422 103 422 150 444 c 128,-1,47
 197 466 197 466 238 467 c 128,-1,48
 279 468 279 468 343 452 c 128,-1,49
 407 436 407 436 477 396 c 0,50,51
 545 358 545 358 596 344 c 128,-1,52
 647 330 647 330 689 344 c 128,-1,53
 731 358 731 358 754 373 c 128,-1,54
 777 388 777 388 821 424 c 0,26,27
821 168 m 0,55,56
 859 200 859 200 891 162 c 0,57,58
 905 148 905 148 903 126 c 128,-1,59
 901 104 901 104 885 90 c 0,60,61
 845 56 845 56 820 37 c 128,-1,62
 795 18 795 18 748 -1 c 128,-1,63
 701 -20 701 -20 651 -20 c 0,64,65
 555 -20 555 -20 429 50 c 0,66,67
 361 88 361 88 310 102 c 128,-1,68
 259 116 259 116 217 103 c 128,-1,69
 175 90 175 90 151 74 c 128,-1,70
 127 58 127 58 85 22 c 0,71,72
 71 8 71 8 50 10 c 128,-1,73
 29 12 29 12 15 28 c 0,74,75
 -17 68 -17 68 21 101 c 128,-1,76
 59 134 59 134 81 150 c 128,-1,77
 103 166 103 166 150 188 c 128,-1,78
 197 210 197 210 238 211 c 128,-1,79
 279 212 279 212 343 196 c 128,-1,80
 407 180 407 180 477 140 c 0,81,82
 545 102 545 102 596 88 c 128,-1,83
 647 74 647 74 689 88 c 128,-1,84
 731 102 731 102 754 117 c 128,-1,85
 777 132 777 132 821 168 c 0,55,56
EndSplineSet
EndChar

StartChar: eq
Encoding: 77 77 45
Width: 834
Flags: W
LayerCount: 2
Back
Fore
SplineSet
729 637 m 2,0,1
 773 637 773 637 803 606 c 128,-1,2
 833 575 833 575 834 533 c 128,-1,3
 835 491 835 491 803 460 c 128,-1,4
 771 429 771 429 729 429 c 2,5,-1
 104 429 l 2,6,7
 60 429 60 429 30 459 c 128,-1,8
 0 489 0 489 0 533 c 128,-1,9
 0 577 0 577 30 607 c 128,-1,10
 60 637 60 637 104 637 c 2,11,-1
 729 637 l 2,0,1
729 273 m 2,12,13
 773 273 773 273 803 242 c 128,-1,14
 833 211 833 211 833.5 168 c 128,-1,15
 834 125 834 125 803 95 c 128,-1,16
 772 65 772 65 729 64 c 2,17,-1
 104 64 l 2,18,19
 60 64 60 64 30 94 c 128,-1,20
 0 124 0 124 0 168 c 128,-1,21
 0 212 0 212 31 242 c 128,-1,22
 62 272 62 272 104 273 c 2,23,-1
 729 273 l 2,12,13
EndSplineSet
EndChar

StartChar: outline
Encoding: 78 78 46
Width: 625
Flags: W
LayerCount: 2
Back
Fore
SplineSet
313 559 m 1,0,1
 226 559 226 559 165 498 c 128,-1,2
 104 437 104 437 104 350 c 128,-1,3
 104 263 104 263 165 203 c 128,-1,4
 226 143 226 143 313 141 c 128,-1,5
 400 139 400 139 460 203 c 128,-1,6
 520 267 520 267 521 350 c 128,-1,7
 522 433 522 433 460 498 c 128,-1,8
 398 563 398 563 313 559 c 1,0,1
313 663 m 0,9,10
 443 663 443 663 534 571 c 128,-1,11
 625 479 625 479 625 350 c 128,-1,12
 625 221 625 221 534 129 c 128,-1,13
 443 37 443 37 313 38 c 128,-1,14
 183 39 183 39 91 129 c 128,-1,15
 -1 219 -1 219 0 350 c 128,-1,16
 1 481 1 481 91 571 c 128,-1,17
 181 661 181 661 313 663 c 0,9,10
EndSplineSet
EndChar

StartChar: dot
Encoding: 79 79 47
Width: 625
Flags: W
LayerCount: 2
Back
Fore
SplineSet
313 663 m 0,0,1
 443 663 443 663 534 571 c 128,-1,2
 625 479 625 479 625 350 c 128,-1,3
 625 221 625 221 534 129 c 128,-1,4
 443 37 443 37 313 38 c 128,-1,5
 183 39 183 39 91 129 c 128,-1,6
 -1 219 -1 219 0 350 c 128,-1,7
 1 481 1 481 91 571 c 128,-1,8
 181 661 181 661 313 663 c 0,0,1
EndSplineSet
EndChar

StartChar: down-circle
Encoding: 80 80 48
Width: 928
Flags: W
LayerCount: 2
Back
Fore
SplineSet
911 350 m 0,0,1
 911 166 911 166 780 35 c 128,-1,2
 649 -96 649 -96 465 -97 c 128,-1,3
 281 -98 281 -98 149 35 c 128,-1,4
 17 168 17 168 18 350 c 128,-1,5
 19 532 19 532 149 666 c 128,-1,6
 279 800 279 800 465 797 c 128,-1,7
 651 794 651 794 780 666 c 128,-1,8
 909 538 909 538 911 350 c 0,0,1
241 349 m 1,9,-1
 464 127 l 1,10,-1
 686 349 l 1,11,-1
 521 349 l 1,12,-1
 521 574 l 1,13,-1
 409 574 l 1,14,-1
 409 349 l 1,15,-1
 241 349 l 1,9,-1
EndSplineSet
EndChar

StartChar: left-circle
Encoding: 81 81 49
Width: 928
Flags: W
LayerCount: 2
Back
Fore
SplineSet
465 -97 m 1,0,1
 280 -97 280 -97 149 35 c 128,-1,2
 18 167 18 167 18 350 c 128,-1,3
 18 533 18 533 149 666 c 128,-1,4
 280 799 280 799 465 797 c 128,-1,5
 650 795 650 795 780 666 c 128,-1,6
 910 537 910 537 911 350 c 128,-1,7
 912 163 912 163 780 35 c 128,-1,8
 648 -93 648 -93 465 -97 c 1,0,1
463 574 m 1,9,-1
 241 351 l 1,10,-1
 463 129 l 1,11,-1
 463 295 l 1,12,-1
 688 295 l 1,13,-1
 688 407 l 1,14,-1
 463 407 l 1,15,-1
 463 574 l 1,9,-1
EndSplineSet
EndChar

StartChar: right-circle
Encoding: 82 82 50
Width: 928
Flags: W
LayerCount: 2
Back
Fore
SplineSet
465 797 m 0,0,1
 649 797 649 797 780 666 c 128,-1,2
 911 535 911 535 911 350 c 128,-1,3
 911 165 911 165 780 35 c 128,-1,4
 649 -95 649 -95 465 -97 c 128,-1,5
 281 -99 281 -99 149 35 c 128,-1,6
 17 169 17 169 18 350 c 128,-1,7
 19 531 19 531 149 666 c 128,-1,8
 279 801 279 801 465 797 c 0,0,1
466 127 m 1,9,-1
 688 351 l 1,10,-1
 466 573 l 1,11,-1
 466 407 l 1,12,-1
 241 407 l 1,13,-1
 241 295 l 1,14,-1
 466 295 l 1,15,-1
 466 127 l 1,9,-1
EndSplineSet
EndChar

StartChar: up-circle
Encoding: 83 83 51
Width: 928
Flags: W
LayerCount: 2
Back
Fore
SplineSet
18 350 m 0,0,1
 18 535 18 535 148 666 c 128,-1,2
 278 797 278 797 463.5 797 c 128,-1,3
 649 797 649 797 780 666 c 128,-1,4
 911 535 911 535 911 350 c 128,-1,5
 911 165 911 165 780 35 c 128,-1,6
 649 -95 649 -95 465 -97 c 128,-1,7
 281 -99 281 -99 149 35 c 128,-1,8
 17 169 17 169 18 350 c 0,0,1
688 352 m 1,9,-1
 464 574 l 1,10,-1
 242 352 l 1,11,-1
 409 352 l 1,12,-1
 409 127 l 1,13,-1
 521 127 l 1,14,-1
 521 352 l 1,15,-1
 688 352 l 1,9,-1
EndSplineSet
EndChar

StartChar: cog-circled
Encoding: 84 84 52
Width: 1000
Flags: W
LayerCount: 2
Back
Fore
SplineSet
0 350 m 0,0,1
 0 557 0 557 147 704 c 128,-1,2
 294 851 294 851 500 850 c 128,-1,3
 706 849 706 849 854 704 c 128,-1,4
 1002 559 1002 559 1000 350 c 128,-1,5
 998 141 998 141 854 -4 c 128,-1,6
 710 -149 710 -149 500 -150 c 128,-1,7
 290 -151 290 -151 147 -4 c 128,-1,8
 4 143 4 143 0 350 c 0,0,1
195 303 m 1,9,-1
 287 293 l 1,10,11
 295 264 295 264 309 241 c 1,12,-1
 250 168 l 1,13,-1
 318 100 l 1,14,-1
 391 159 l 1,15,16
 414 145 414 145 443 137 c 1,17,-1
 453 45 l 1,18,-1
 547 45 l 1,19,-1
 557 137 l 1,20,21
 586 145 586 145 609 159 c 1,22,-1
 682 100 l 1,23,-1
 750 168 l 1,24,-1
 691 241 l 1,25,26
 705 264 705 264 713 293 c 1,27,-1
 805 303 l 1,28,-1
 805 397 l 1,29,-1
 713 407 l 1,30,31
 705 436 705 436 691 459 c 1,32,-1
 750 532 l 1,33,-1
 682 600 l 1,34,-1
 609 541 l 1,35,36
 586 555 586 555 557 563 c 1,37,-1
 547 655 l 1,38,-1
 453 655 l 1,39,-1
 443 563 l 1,40,41
 414 555 414 555 391 541 c 1,42,-1
 318 600 l 1,43,-1
 250 532 l 1,44,-1
 309 459 l 1,45,46
 295 436 295 436 287 407 c 1,47,-1
 195 397 l 1,48,-1
 195 303 l 1,9,-1
412 350 m 1,49,50
 412 387 412 387 438 413 c 128,-1,51
 464 439 464 439 500 438 c 128,-1,52
 536 437 536 437 563 413 c 128,-1,53
 590 389 590 389 588 350 c 128,-1,54
 586 311 586 311 563 288 c 128,-1,55
 540 265 540 265 500 262 c 128,-1,56
 460 259 460 259 438 288 c 128,-1,57
 416 317 416 317 412 350 c 1,49,50
EndSplineSet
EndChar

StartChar: cancel
Encoding: 85 85 53
Width: 628
Flags: W
LayerCount: 2
Back
Fore
SplineSet
596 632 m 0,0,1
 628 601 628 601 628 558 c 128,-1,2
 628 515 628 515 596 484 c 2,3,-1
 461 349 l 1,4,-1
 596 214 l 2,5,6
 628 183 628 183 628 141 c 128,-1,7
 628 99 628 99 596 67 c 0,8,9
 566 37 566 37 523 37 c 128,-1,10
 480 37 480 37 449 67 c 2,11,-1
 314 202 l 1,12,-1
 179 67 l 2,13,14
 149 37 149 37 105 37 c 128,-1,15
 61 37 61 37 30.5 67.5 c 128,-1,16
 0 98 0 98 0 141 c 128,-1,17
 0 184 0 184 31 214 c 2,18,-1
 166 349 l 1,19,-1
 31 484 l 2,20,21
 0 516 0 516 0 558 c 128,-1,22
 0 600 0 600 30.5 631.5 c 128,-1,23
 61 663 61 663 105 663 c 128,-1,24
 149 663 149 663 179 632 c 2,25,-1
 314 497 l 1,26,-1
 449 632 l 2,27,28
 479 663 479 663 523 663 c 128,-1,29
 567 663 567 663 596 632 c 0,0,1
EndSplineSet
EndChar

StartChar: ok-circled
Encoding: 86 86 54
Width: 857
Flags: W
LayerCount: 2
Back
Fore
SplineSet
717 440 m 0,0,1
 717 456 717 456 706 466 c 2,2,-1
 656 516 l 2,3,4
 645 527 645 527 631 527 c 128,-1,5
 617 527 617 527 605 516 c 2,6,-1
 378 289 l 1,7,-1
 252 415 l 2,8,9
 241 426 241 426 227 426 c 128,-1,10
 213 426 213 426 201 415 c 2,11,-1
 151 365 l 2,12,13
 141 355 141 355 141 339.5 c 128,-1,14
 141 324 141 324 151 314 c 2,15,-1
 353 112 l 2,16,17
 363 102 363 102 378 102 c 128,-1,18
 393 102 393 102 403 112 c 2,19,-1
 706 415 l 2,20,21
 717 425 717 425 717 440 c 0,0,1
857 350 m 1,22,23
 857 233 857 233 800 135 c 128,-1,24
 743 37 743 37 644 -21 c 128,-1,25
 545 -79 545 -79 429 -79 c 128,-1,26
 313 -79 313 -79 213 -21 c 128,-1,27
 113 37 113 37 58 135 c 128,-1,28
 3 233 3 233 0 350 c 128,-1,29
 -3 467 -3 467 58 565 c 128,-1,30
 119 663 119 663 213 721 c 128,-1,31
 307 779 307 779 429 779 c 128,-1,32
 551 779 551 779 644 721 c 128,-1,33
 737 663 737 663 800 565 c 128,-1,34
 863 467 863 467 857 350 c 1,22,23
EndSplineSet
EndChar

StartChar: ok
Encoding: 87 87 55
Width: 1000
Flags: W
LayerCount: 2
Back
Fore
SplineSet
932 534 m 256,0,1
 932 512 932 512 917 496 c 2,2,-1
 437 16 l 2,3,4
 421 1 421 1 399 1 c 128,-1,5
 377 1 377 1 361 16 c 2,6,-1
 83 294 l 2,7,8
 68 310 68 310 68 332 c 128,-1,9
 68 354 68 354 83 370 c 2,10,-1
 159 446 l 2,11,12
 175 462 175 462 197 462 c 128,-1,13
 219 462 219 462 235 446 c 2,14,-1
 399 281 l 1,15,-1
 765 648 l 2,16,17
 781 664 781 664 803 664 c 128,-1,18
 825 664 825 664 841 648 c 2,19,-1
 917 572 l 2,20,21
 932 556 932 556 932 534 c 256,0,1
EndSplineSet
EndChar

StartChar: trash
Encoding: 88 88 56
Width: 750
Flags: W
LayerCount: 2
Back
Fore
SplineSet
275 825 m 2,0,1
 265 825 265 825 257.5 818 c 128,-1,2
 250 811 250 811 250 800 c 2,3,-1
 250 725 l 1,4,-1
 50 725 l 2,5,6
 29 725 29 725 14.5 710.5 c 128,-1,7
 0 696 0 696 0 675 c 128,-1,8
 0 654 0 654 14.5 639.5 c 128,-1,9
 29 625 29 625 50 625 c 2,10,-1
 700 625 l 2,11,12
 721 625 721 625 735.5 639.5 c 128,-1,13
 750 654 750 654 750 675 c 128,-1,14
 750 696 750 696 735.5 710.5 c 128,-1,15
 721 725 721 725 700 725 c 2,16,-1
 500 725 l 1,17,-1
 500 800 l 2,18,19
 500 811 500 811 493 818 c 128,-1,20
 486 825 486 825 475 825 c 2,21,-1
 275 825 l 2,0,1
300 775 m 1,22,-1
 450 775 l 1,23,-1
 450 725 l 1,24,-1
 300 725 l 1,25,-1
 300 775 l 1,22,-1
50 575 m 2,26,27
 28 575 28 575 12.5 560 c 128,-1,28
 -3 545 -3 545 1 525 c 2,29,-1
 100 -75 l 2,30,31
 104 -97 104 -97 117 -111 c 128,-1,32
 130 -125 130 -125 150 -125 c 2,33,-1
 600 -125 l 2,34,35
 620 -125 620 -125 633 -111 c 128,-1,36
 646 -97 646 -97 650 -75 c 2,37,-1
 749 525 l 2,38,39
 753 545 753 545 737.5 560 c 128,-1,40
 722 575 722 575 700 575 c 2,41,-1
 50 575 l 2,26,27
EndSplineSet
EndChar

StartChar: layers
Encoding: 89 89 57
Width: 928
Flags: W
LayerCount: 2
Back
Fore
SplineSet
18 183 m 1,0,-1
 464 71 l 1,1,-1
 911 183 l 1,2,-1
 911 71 l 1,3,-1
 464 -41 l 1,4,-1
 18 71 l 1,5,-1
 18 183 l 1,0,-1
18 406 m 1,6,-1
 464 294 l 1,7,-1
 911 406 l 1,8,-1
 911 294 l 1,9,-1
 464 183 l 1,10,-1
 18 294 l 1,11,-1
 18 406 l 1,6,-1
18 629 m 1,12,-1
 464 741 l 1,13,-1
 911 629 l 1,14,-1
 911 518 l 1,15,-1
 464 406 l 1,16,-1
 18 518 l 1,17,-1
 18 629 l 1,12,-1
EndSplineSet
EndChar

StartChar: minus
Encoding: 90 90 58
Width: 857
Flags: W
LayerCount: 2
Back
Fore
SplineSet
714 314 m 2,0,-1
 714 386 l 2,1,2
 714 400 714 400 704 411 c 128,-1,3
 694 422 694 422 679 421 c 2,4,-1
 179 421 l 2,5,6
 164 421 164 421 153 411 c 128,-1,7
 142 401 142 401 143 386 c 2,8,-1
 143 314 l 2,9,10
 143 300 143 300 153 289 c 128,-1,11
 163 278 163 278 179 279 c 2,12,-1
 679 279 l 2,13,14
 693 279 693 279 704 289 c 128,-1,15
 715 299 715 299 714 314 c 2,0,-1
857 618 m 2,16,-1
 857 82 l 2,17,18
 857 16 857 16 810 -31 c 128,-1,19
 763 -78 763 -78 696 -79 c 2,20,-1
 161 -79 l 2,21,22
 94 -79 94 -79 47 -31 c 128,-1,23
 0 17 0 17 0 82 c 2,24,-1
 0 618 l 2,25,26
 0 684 0 684 47 731 c 128,-1,27
 94 778 94 778 161 779 c 2,28,-1
 696 779 l 2,29,30
 763 779 763 779 810 731 c 128,-1,31
 857 683 857 683 857 618 c 2,16,-1
EndSplineSet
EndChar

StartChar: minus-boxed
Encoding: 91 91 59
Width: 785
Flags: W
LayerCount: 2
Back
Fore
SplineSet
643 404 m 2,0,-1
 643 368 l 2,1,2
 643 360 643 360 638 355 c 128,-1,3
 633 350 633 350 625 350 c 2,4,-1
 161 350 l 2,5,6
 153 350 153 350 148 355 c 128,-1,7
 143 360 143 360 143 368 c 2,8,-1
 143 404 l 2,9,10
 143 411 143 411 148 416 c 128,-1,11
 153 421 153 421 161 421 c 2,12,-1
 625 421 l 2,13,14
 633 421 633 421 638 416 c 128,-1,15
 643 411 643 411 643 404 c 2,0,-1
714 154 m 2,16,-1
 714 618 l 2,17,18
 714 655 714 655 688 681 c 128,-1,19
 662 707 662 707 625 707 c 2,20,-1
 161 707 l 2,21,22
 124 707 124 707 98 681 c 128,-1,23
 72 655 72 655 71 618 c 2,24,-1
 71 154 l 2,25,26
 71 117 71 117 98 91 c 128,-1,27
 125 65 125 65 161 64 c 2,28,-1
 625 64 l 2,29,30
 662 64 662 64 688 91 c 128,-1,31
 714 118 714 118 714 154 c 2,16,-1
786 618 m 2,32,-1
 786 154 l 2,33,34
 786 87 786 87 739 40 c 128,-1,35
 692 -7 692 -7 625 -7 c 2,36,-1
 161 -7 l 2,37,38
 94 -7 94 -7 47 40 c 128,-1,39
 0 87 0 87 0 154 c 2,40,-1
 0 618 l 2,41,42
 0 684 0 684 47 731 c 128,-1,43
 94 778 94 778 161 779 c 2,44,-1
 625 779 l 2,45,46
 691 779 691 779 739 731 c 128,-1,47
 787 683 787 683 786 618 c 2,32,-1
EndSplineSet
EndChar

StartChar: cancel-circled
Encoding: 92 92 60
Width: 857
Flags: W
LayerCount: 2
Back
Fore
SplineSet
641 224 m 0,0,1
 641 238 641 238 631 249 c 2,2,-1
 530 350 l 1,3,-1
 631 451 l 2,4,5
 641 462 641 462 641 476.5 c 128,-1,6
 641 491 641 491 631 502 c 2,7,-1
 580 552 l 2,8,9
 570 563 570 563 555 563 c 128,-1,10
 540 563 540 563 530 552 c 2,11,-1
 429 451 l 1,12,-1
 328 552 l 2,13,14
 317 563 317 563 302 563 c 128,-1,15
 287 563 287 563 277 552 c 2,16,-1
 227 502 l 2,17,18
 216 491 216 491 216 476.5 c 128,-1,19
 216 462 216 462 227 451 c 2,20,-1
 328 350 l 1,21,-1
 227 249 l 2,22,23
 216 238 216 238 216 223.5 c 128,-1,24
 216 209 216 209 227 198 c 2,25,-1
 277 148 l 2,26,27
 287 137 287 137 302 137 c 128,-1,28
 317 137 317 137 328 148 c 2,29,-1
 429 249 l 1,30,-1
 530 148 l 2,31,32
 540 137 540 137 555 137 c 128,-1,33
 570 137 570 137 580 148 c 2,34,-1
 631 198 l 2,35,36
 641 209 641 209 641 224 c 0,0,1
857 350 m 1,37,38
 857 233 857 233 800 135 c 128,-1,39
 743 37 743 37 644 -21 c 128,-1,40
 545 -79 545 -79 429 -79 c 128,-1,41
 313 -79 313 -79 213 -21 c 128,-1,42
 113 37 113 37 58 135 c 128,-1,43
 3 233 3 233 0 350 c 128,-1,44
 -3 467 -3 467 58 565 c 128,-1,45
 119 663 119 663 213 721 c 128,-1,46
 307 779 307 779 429 779 c 128,-1,47
 551 779 551 779 644 721 c 128,-1,48
 737 663 737 663 800 565 c 128,-1,49
 863 467 863 467 857 350 c 1,37,38
EndSplineSet
EndChar

StartChar: delete
Encoding: 93 93 61
Width: 1093
Flags: W
LayerCount: 2
Back
Fore
SplineSet
936 -67 m 2,0,-1
 415 -67 l 2,1,2
 359 -67 359 -67 299 -37 c 128,-1,3
 239 -7 239 -7 208 40 c 2,4,-1
 71 231 l 2,5,6
 58 250 58 250 42 272 c 2,7,-1
 18 305 l 2,8,9
 10 316 10 316 10 317 c 0,10,11
 0 331 0 331 0 350 c 128,-1,12
 0 369 0 369 9 382 c 0,13,14
 14 387 14 387 73 470 c 2,15,-1
 208 660 l 2,16,17
 240 706 240 706 299 736 c 128,-1,18
 358 766 358 766 415 767 c 2,19,-1
 936 767 l 2,20,21
 1001 767 1001 767 1047 721 c 128,-1,22
 1093 675 1093 675 1093 611 c 2,23,-1
 1093 90 l 2,24,25
 1093 25 1093 25 1047 -21 c 128,-1,26
 1001 -67 1001 -67 936 -67 c 2,0,-1
115 350 m 1,27,28
 121 341 121 341 136 320 c 2,29,-1
 293 101 l 2,30,31
 310 76 310 76 348 56 c 128,-1,32
 386 36 386 36 415 37 c 2,33,-1
 936 37 l 2,34,35
 958 37 958 37 973 53 c 128,-1,36
 988 69 988 69 988 90 c 2,37,-1
 988 611 l 2,38,39
 988 632 988 632 973 647 c 128,-1,40
 958 662 958 662 936 662 c 2,41,-1
 415 662 l 2,42,43
 385 662 385 662 348 643 c 128,-1,44
 311 624 311 624 293 600 c 2,45,-1
 158 410 l 2,46,47
 150 400 150 400 136 378 c 128,-1,48
 122 356 122 356 115 350 c 1,27,28
660 350 m 1,49,-1
 799 212 l 2,50,51
 811 200 811 200 804 183 c 128,-1,52
 797 166 797 166 780 167 c 0,53,54
 770 167 770 167 761 176 c 2,55,-1
 624 313 l 1,56,-1
 486 176 l 2,57,58
 478 167 478 167 468 167 c 0,59,60
 451 167 451 167 444 183 c 128,-1,61
 437 199 437 199 449 212 c 2,62,-1
 586 350 l 1,63,-1
 449 488 l 2,64,65
 438 500 438 500 443 513 c 128,-1,66
 448 526 448 526 461 531 c 128,-1,67
 474 536 474 536 486 525 c 2,68,-1
 624 387 l 1,69,-1
 761 525 l 2,70,71
 779 542 779 542 797 524 c 128,-1,72
 815 506 815 506 798 488 c 2,73,-1
 660 350 l 1,49,-1
EndSplineSet
EndChar

StartChar: desktop
Encoding: 94 94 62
Width: 1071
Flags: W
LayerCount: 2
Back
Fore
SplineSet
1000 296 m 2,0,-1
 1000 761 l 2,1,2
 1000 768 1000 768 995 773 c 128,-1,3
 990 778 990 778 982 779 c 2,4,-1
 89 779 l 2,5,6
 82 779 82 779 77 773 c 128,-1,7
 72 767 72 767 71 761 c 2,8,-1
 71 296 l 2,9,10
 71 289 71 289 77 284 c 128,-1,11
 83 279 83 279 89 279 c 2,12,-1
 982 279 l 2,13,14
 989 279 989 279 995 284 c 128,-1,15
 1001 289 1001 289 1000 296 c 2,0,-1
1071 761 m 2,16,-1
 1071 154 l 2,17,18
 1071 117 1071 117 1045 91 c 128,-1,19
 1019 65 1019 65 982 64 c 2,20,-1
 679 64 l 1,21,22
 679 44 679 44 688 21 c 128,-1,23
 697 -2 697 -2 705 -19 c 128,-1,24
 713 -36 713 -36 714 -43 c 0,25,26
 714 -57 714 -57 704 -68 c 128,-1,27
 694 -79 694 -79 679 -79 c 2,28,-1
 393 -79 l 2,29,30
 378 -79 378 -79 368 -68 c 128,-1,31
 358 -57 358 -57 357 -43 c 0,32,33
 357 -35 357 -35 366 -18 c 128,-1,34
 375 -1 375 -1 384 21 c 128,-1,35
 393 43 393 43 393 64 c 1,36,-1
 89 64 l 2,37,38
 53 64 53 64 26 91 c 128,-1,39
 -1 118 -1 118 0 154 c 2,40,-1
 0 761 l 2,41,42
 0 798 0 798 26 824 c 128,-1,43
 52 850 52 850 89 850 c 2,44,-1
 982 850 l 2,45,46
 1019 850 1019 850 1045 824 c 128,-1,47
 1071 798 1071 798 1071 761 c 2,16,-1
EndSplineSet
EndChar

StartChar: laptop
Encoding: 95 95 63
Width: 1071
Flags: W
LayerCount: 2
Back
Fore
SplineSet
232 136 m 2,0,1
 195 136 195 136 169 162 c 128,-1,2
 143 188 143 188 143 225 c 2,3,-1
 143 618 l 2,4,5
 143 655 143 655 169 681 c 128,-1,6
 195 707 195 707 232 707 c 2,7,-1
 839 707 l 2,8,9
 876 707 876 707 902 681 c 128,-1,10
 928 655 928 655 929 618 c 2,11,-1
 929 225 l 2,12,13
 929 188 929 188 902 162 c 128,-1,14
 875 136 875 136 839 136 c 2,15,-1
 232 136 l 2,0,1
214 618 m 2,16,-1
 214 225 l 2,17,18
 214 218 214 218 220 212 c 128,-1,19
 226 206 226 206 232 207 c 2,20,-1
 839 207 l 2,21,22
 847 207 847 207 852 212 c 128,-1,23
 857 217 857 217 857 225 c 2,24,-1
 857 618 l 2,25,26
 857 625 857 625 852 630 c 128,-1,27
 847 635 847 635 839 636 c 2,28,-1
 232 636 l 2,29,30
 225 636 225 636 220 630 c 128,-1,31
 215 624 215 624 214 618 c 2,16,-1
982 100 m 1,32,-1
 1071 100 l 1,33,-1
 1071 46 l 2,34,35
 1071 24 1071 24 1045 9 c 128,-1,36
 1019 -6 1019 -6 982 -7 c 2,37,-1
 89 -7 l 2,38,39
 53 -7 53 -7 26 9 c 128,-1,40
 -1 25 -1 25 0 46 c 2,41,-1
 0 100 l 1,42,-1
 982 100 l 1,32,-1
580 46 m 2,43,44
 589 46 589 46 589 55 c 128,-1,45
 589 64 589 64 580 64 c 2,46,-1
 491 64 l 2,47,48
 482 64 482 64 482 55 c 128,-1,49
 482 46 482 46 491 46 c 2,50,-1
 580 46 l 2,43,44
EndSplineSet
EndChar

StartChar: tablet
Encoding: 96 96 64
Width: 642
Flags: W
LayerCount: 2
Back
Fore
SplineSet
357 64 m 0,0,1
 357 79 357 79 347 89 c 128,-1,2
 337 99 337 99 321 100 c 128,-1,3
 305 101 305 101 296 89 c 128,-1,4
 287 77 287 77 286 64 c 128,-1,5
 285 51 285 51 296 39 c 128,-1,6
 307 27 307 27 321 29 c 128,-1,7
 335 31 335 31 347 39 c 128,-1,8
 359 47 359 47 357 64 c 0,0,1
571 154 m 2,9,-1
 571 689 l 2,10,11
 571 697 571 697 566 702 c 128,-1,12
 561 707 561 707 554 707 c 2,13,-1
 89 707 l 2,14,15
 82 707 82 707 77 702 c 128,-1,16
 72 697 72 697 71 689 c 2,17,-1
 71 154 l 2,18,19
 71 146 71 146 77 141 c 128,-1,20
 83 136 83 136 89 136 c 2,21,-1
 554 136 l 2,22,23
 561 136 561 136 566 141 c 128,-1,24
 571 146 571 146 571 154 c 2,9,-1
643 689 m 2,25,-1
 643 82 l 2,26,27
 643 45 643 45 617 19 c 128,-1,28
 591 -7 591 -7 554 -7 c 2,29,-1
 89 -7 l 2,30,31
 53 -7 53 -7 26 19 c 128,-1,32
 -1 45 -1 45 0 82 c 2,33,-1
 0 689 l 2,34,35
 0 726 0 726 26 752 c 128,-1,36
 52 778 52 778 89 779 c 2,37,-1
 554 779 l 2,38,39
 590 779 590 779 617 752 c 128,-1,40
 644 725 644 725 643 689 c 2,25,-1
EndSplineSet
EndChar

StartChar: mobile
Encoding: 97 97 65
Width: 428
Flags: W
LayerCount: 2
Back
Fore
SplineSet
259 64 m 0,0,1
 259 83 259 83 246 96 c 128,-1,2
 233 109 233 109 214 109 c 128,-1,3
 195 109 195 109 183 96 c 128,-1,4
 171 83 171 83 170 64 c 128,-1,5
 169 45 169 45 183 33 c 128,-1,6
 197 21 197 21 214 20 c 128,-1,7
 231 19 231 19 246 33 c 128,-1,8
 261 47 261 47 259 64 c 0,0,1
375 154 m 2,9,-1
 375 546 l 2,10,11
 375 554 375 554 370 559 c 128,-1,12
 365 564 365 564 357 564 c 2,13,-1
 71 564 l 2,14,15
 64 564 64 564 59 559 c 128,-1,16
 54 554 54 554 54 546 c 2,17,-1
 54 154 l 2,18,19
 54 146 54 146 59 141 c 128,-1,20
 64 136 64 136 71 136 c 2,21,-1
 357 136 l 2,22,23
 364 136 364 136 370 141 c 128,-1,24
 376 146 376 146 375 154 c 2,9,-1
268 627 m 256,25,26
 268 636 268 636 259 636 c 2,27,-1
 170 636 l 2,28,29
 161 636 161 636 161 627 c 128,-1,30
 161 618 161 618 170 618 c 2,31,-1
 259 618 l 2,32,33
 268 618 268 618 268 627 c 256,25,26
429 636 m 2,34,-1
 429 64 l 2,35,36
 429 35 429 35 407 14 c 128,-1,37
 385 -7 385 -7 357 -7 c 2,38,-1
 71 -7 l 2,39,40
 42 -7 42 -7 21 14 c 128,-1,41
 0 35 0 35 0 64 c 2,42,-1
 0 636 l 2,43,44
 0 665 0 665 21 686 c 128,-1,45
 42 707 42 707 71 707 c 2,46,-1
 357 707 l 2,47,48
 386 707 386 707 407 686 c 128,-1,49
 428 665 428 665 429 636 c 2,34,-1
EndSplineSet
EndChar

StartChar: publish
Encoding: 98 98 66
Width: 1000
Flags: W
LayerCount: 2
Back
Fore
SplineSet
900 800 m 2,0,1
 942 800 942 800 971 770 c 128,-1,2
 1000 740 1000 740 1000 700 c 2,3,-1
 1000 100 l 2,4,5
 1000 58 1000 58 971 29 c 128,-1,6
 942 0 942 0 900 0 c 2,7,-1
 702 0 l 1,8,-1
 702 98 l 1,9,-1
 902 98 l 1,10,-1
 902 560 l 1,11,-1
 100 560 l 1,12,-1
 100 98 l 1,13,-1
 300 98 l 1,14,-1
 300 0 l 1,15,-1
 100 0 l 2,16,17
 60 0 60 0 30 29 c 128,-1,18
 0 58 0 58 0 100 c 2,19,-1
 0 700 l 2,20,21
 0 740 0 740 30 770 c 128,-1,22
 60 800 60 800 100 800 c 2,23,-1
 900 800 l 2,0,1
130 632 m 0,24,25
 168 632 168 632 168 670 c 0,26,27
 168 686 168 686 157 696 c 128,-1,28
 146 706 146 706 130 706 c 128,-1,29
 114 706 114 706 103 695 c 128,-1,30
 92 684 92 684 92 669 c 128,-1,31
 92 654 92 654 103 643 c 128,-1,32
 114 632 114 632 130 632 c 0,24,25
230 632 m 0,33,34
 268 632 268 632 268 670 c 0,35,36
 268 686 268 686 257 696 c 128,-1,37
 246 706 246 706 230 706 c 128,-1,38
 214 706 214 706 203 695 c 128,-1,39
 192 684 192 684 192 669 c 128,-1,40
 192 654 192 654 203 643 c 128,-1,41
 214 632 214 632 230 632 c 0,33,34
902 638 m 1,42,-1
 902 700 l 1,43,-1
 300 700 l 1,44,-1
 300 638 l 1,45,-1
 902 638 l 1,42,-1
498 440 m 1,46,-1
 740 200 l 1,47,-1
 590 200 l 1,48,-1
 590 -100 l 1,49,-1
 406 -100 l 1,50,-1
 406 200 l 1,51,-1
 256 200 l 1,52,-1
 498 440 l 1,46,-1
EndSplineSet
EndChar

StartChar: window
Encoding: 99 99 67
Width: 1000
Flags: W
LayerCount: 2
Back
Fore
SplineSet
900 750 m 2,0,1
 942 750 942 750 971 720 c 128,-1,2
 1000 690 1000 690 1000 650 c 2,3,-1
 1000 50 l 2,4,5
 1000 8 1000 8 971 -21 c 128,-1,6
 942 -50 942 -50 900 -50 c 2,7,-1
 100 -50 l 2,8,9
 60 -50 60 -50 30 -21 c 128,-1,10
 0 8 0 8 0 50 c 2,11,-1
 0 650 l 2,12,13
 0 690 0 690 30 720 c 128,-1,14
 60 750 60 750 100 750 c 2,15,-1
 900 750 l 2,0,1
230 656 m 256,16,17
 214 656 214 656 203 645 c 128,-1,18
 192 634 192 634 192 619 c 128,-1,19
 192 604 192 604 203 593 c 128,-1,20
 214 582 214 582 230 582 c 0,21,22
 268 582 268 582 268 620 c 0,23,24
 268 636 268 636 257 646 c 128,-1,25
 246 656 246 656 230 656 c 256,16,17
92 620 m 0,26,27
 92 604 92 604 103 593 c 128,-1,28
 114 582 114 582 130 582 c 0,29,30
 168 582 168 582 168 620 c 0,31,32
 168 636 168 636 157 646 c 128,-1,33
 146 656 146 656 130 656 c 128,-1,34
 114 656 114 656 103 645 c 128,-1,35
 92 634 92 634 92 620 c 0,26,27
902 50 m 1,36,-1
 902 510 l 1,37,-1
 100 510 l 1,38,-1
 100 50 l 1,39,-1
 902 50 l 1,36,-1
902 590 m 1,40,-1
 902 650 l 1,41,-1
 300 650 l 1,42,-1
 300 590 l 1,43,-1
 902 590 l 1,40,-1
EndSplineSet
EndChar

StartChar: download-outline
Encoding: 100 100 68
Width: 938
Flags: W
LayerCount: 2
Back
Fore
SplineSet
936 64 m 2,0,-1
 938 -197 l 2,1,2
 938 -219 938 -219 922 -234 c 128,-1,3
 906 -249 906 -249 885 -249 c 2,4,-1
 53 -249 l 2,5,6
 31 -249 31 -249 16 -234 c 128,-1,7
 1 -219 1 -219 0 -197 c 0,8,9
 0 64 0 64 1 64 c 1,10,11
 1 75 1 75 3 80 c 2,12,-1
 108 393 l 2,13,14
 120 428 120 428 156 428 c 2,15,-1
 185 428 l 1,16,-1
 150 464 l 2,17,18
 104 510 104 510 104 574 c 128,-1,19
 104 638 104 638 150 684 c 0,20,21
 181 715 181 715 226 725 c 128,-1,22
 271 735 271 735 313 722 c 1,23,-1
 313 793 l 2,24,25
 313 858 313 858 358 903 c 128,-1,26
 403 948 403 948 469 949 c 128,-1,27
 535 950 535 950 579 903 c 128,-1,28
 623 856 623 856 625 793 c 2,29,-1
 625 722 l 1,30,31
 666 735 666 735 711 725 c 128,-1,32
 756 715 756 715 788 684 c 0,33,34
 834 638 834 638 834 574 c 128,-1,35
 834 510 834 510 788 464 c 2,36,-1
 753 428 l 1,37,-1
 781 428 l 2,38,39
 818 428 818 428 830 393 c 2,40,-1
 935 80 l 2,41,42
 936 75 936 75 936 64 c 2,0,-1
224 610 m 0,43,44
 209 595 209 595 209 573 c 128,-1,45
 209 551 209 551 224 537 c 2,46,-1
 469 293 l 1,47,-1
 714 538 l 2,48,49
 729 553 729 553 729 574 c 128,-1,50
 729 595 729 595 714 610 c 128,-1,51
 699 625 699 625 677 625 c 128,-1,52
 655 625 655 625 640 610 c 2,53,-1
 521 492 l 1,54,-1
 521 793 l 2,55,56
 521 814 521 814 506 830 c 128,-1,57
 491 846 491 846 469 845 c 128,-1,58
 447 844 447 844 432 830 c 128,-1,59
 417 816 417 816 416 793 c 2,60,-1
 416 492 l 1,61,-1
 298 610 l 2,62,63
 281 627 281 627 260.5 627 c 128,-1,64
 240 627 240 627 224 610 c 0,43,44
194 324 m 1,65,-1
 108 64 l 1,66,-1
 831 64 l 1,67,-1
 744 324 l 1,68,-1
 648 324 l 1,69,-1
 469 147 l 1,70,-1
 290 324 l 1,71,-1
 194 324 l 1,65,-1
834 -145 m 1,72,-1
 834 12 l 1,73,-1
 104 12 l 1,74,-1
 104 -145 l 1,75,-1
 834 -145 l 1,72,-1
EndSplineSet
EndChar

StartChar: upload-outline
Encoding: 101 101 69
Width: 938
Flags: W
LayerCount: 2
Back
Fore
SplineSet
936 65 m 2,0,-1
 938 -196 l 2,1,2
 938 -218 938 -218 922 -233 c 128,-1,3
 906 -248 906 -248 885 -248 c 2,4,-1
 53 -248 l 2,5,6
 31 -248 31 -248 16 -233 c 128,-1,7
 1 -218 1 -218 0 -196 c 2,8,-1
 0 65 l 2,9,10
 0 71 0 71 3 81 c 2,11,-1
 106 394 l 2,12,13
 114 415 114 415 136 425 c 1,14,15
 101 471 101 471 105 529 c 128,-1,16
 109 587 109 587 150 629 c 2,17,-1
 469 948 l 1,18,-1
 788 629 l 2,19,20
 829 588 829 588 833 529 c 128,-1,21
 837 470 837 470 801 425 c 1,22,23
 823 415 823 415 830 394 c 2,24,-1
 935 81 l 2,25,26
 936 76 936 76 936 65 c 2,0,-1
224 555 m 2,27,28
 209 540 209 540 209 518 c 128,-1,29
 209 496 209 496 224 481 c 128,-1,30
 239 466 239 466 261 466 c 128,-1,31
 283 466 283 466 298 481 c 2,32,-1
 416 600 l 1,33,-1
 416 299 l 2,34,35
 416 278 416 278 432 263 c 128,-1,36
 448 248 448 248 469 248 c 128,-1,37
 490 248 490 248 506 263 c 128,-1,38
 522 278 522 278 521 299 c 2,39,-1
 521 600 l 1,40,-1
 640 481 l 2,41,42
 655 466 655 466 677 466 c 128,-1,43
 699 466 699 466 714 481 c 128,-1,44
 729 496 729 496 729 518 c 128,-1,45
 729 540 729 540 714 555 c 2,46,-1
 469 800 l 1,47,-1
 224 555 l 2,27,28
194 325 m 1,48,-1
 108 65 l 1,49,-1
 830 65 l 1,50,-1
 744 325 l 1,51,-1
 625 325 l 1,52,-1
 625 299 l 2,53,54
 625 234 625 234 579 188 c 128,-1,55
 533 142 533 142 469 143 c 128,-1,56
 405 144 405 144 358 188 c 128,-1,57
 311 232 311 232 313 299 c 2,58,-1
 313 325 l 1,59,-1
 194 325 l 1,48,-1
104 -144 m 1,60,-1
 834 -144 l 1,61,-1
 834 13 l 1,62,-1
 104 13 l 1,63,-1
 104 -144 l 1,60,-1
EndSplineSet
EndChar

StartChar: download
Encoding: 102 102 70
Width: 937
Flags: W
LayerCount: 2
Back
Fore
SplineSet
0 84 m 2,0,-1
 0 157 l 2,1,2
 0 190 0 190 24 213 c 128,-1,3
 48 236 48 236 81 237 c 128,-1,4
 114 238 114 238 137 213 c 128,-1,5
 160 188 160 188 161 157 c 2,6,-1
 161 84 l 2,7,8
 161 67 161 67 173 55 c 128,-1,9
 185 43 185 43 203 42 c 2,10,-1
 734 42 l 2,11,12
 752 42 752 42 764 55 c 128,-1,13
 776 68 776 68 776 84 c 2,14,-1
 776 157 l 2,15,16
 776 190 776 190 800 213 c 128,-1,17
 824 236 824 236 856 237 c 128,-1,18
 888 238 888 238 913 213 c 128,-1,19
 938 188 938 188 937 157 c 2,20,-1
 937 84 l 2,21,22
 937 0 937 0 878 -59 c 128,-1,23
 819 -118 819 -118 734 -119 c 2,24,-1
 203 -119 l 2,25,26
 119 -119 119 -119 59 -59 c 128,-1,27
 -1 1 -1 1 0 84 c 2,0,-1
155 443 m 256,28,29
 155 476 155 476 178.5 499.5 c 128,-1,30
 202 523 202 523 235 523 c 128,-1,31
 268 523 268 523 292 500 c 2,32,-1
 397 394 l 1,33,-1
 397 738 l 2,34,35
 397 771 397 771 421 795 c 128,-1,36
 445 819 445 819 477 818 c 128,-1,37
 509 817 509 817 534 795 c 128,-1,38
 559 773 559 773 558 738 c 2,39,-1
 558 394 l 1,40,-1
 668 504 l 2,41,42
 692 528 692 528 725 528 c 128,-1,43
 758 528 758 528 781.5 504.5 c 128,-1,44
 805 481 805 481 805 448 c 128,-1,45
 805 415 805 415 781 391 c 2,46,-1
 534 144 l 2,47,48
 510 119 510 119 477.5 119 c 128,-1,49
 445 119 445 119 421 144 c 2,50,-1
 179 386 l 2,51,52
 155 410 155 410 155 443 c 256,28,29
EndSplineSet
EndChar

StartChar: upload
Encoding: 103 103 71
Width: 937
Flags: W
LayerCount: 2
Back
Fore
SplineSet
0 84 m 2,0,-1
 0 157 l 2,1,2
 0 190 0 190 24 213 c 128,-1,3
 48 236 48 236 81 237 c 128,-1,4
 114 238 114 238 137 213 c 128,-1,5
 160 188 160 188 161 157 c 2,6,-1
 161 84 l 2,7,8
 161 67 161 67 173 55 c 128,-1,9
 185 43 185 43 203 42 c 2,10,-1
 734 42 l 2,11,12
 752 42 752 42 764 55 c 128,-1,13
 776 68 776 68 776 84 c 2,14,-1
 776 157 l 2,15,16
 776 190 776 190 800 213 c 128,-1,17
 824 236 824 236 856 237 c 128,-1,18
 888 238 888 238 913 213 c 128,-1,19
 938 188 938 188 937 157 c 2,20,-1
 937 84 l 2,21,22
 937 0 937 0 878 -59 c 128,-1,23
 819 -118 819 -118 734 -119 c 2,24,-1
 203 -119 l 2,25,26
 119 -119 119 -119 60 -60 c 128,-1,27
 1 -1 1 -1 0 84 c 2,0,-1
155 491 m 0,28,29
 155 524 155 524 179 548 c 2,30,-1
 426 795 l 2,31,32
 449 818 449 818 482.5 818 c 128,-1,33
 516 818 516 818 539 795 c 2,34,-1
 782 553 l 2,35,36
 805 529 805 529 805 496 c 128,-1,37
 805 463 805 463 781.5 439.5 c 128,-1,38
 758 416 758 416 725 416 c 128,-1,39
 692 416 692 416 668 439 c 2,40,-1
 563 544 l 1,41,-1
 563 200 l 2,42,43
 563 167 563 167 539 143 c 128,-1,44
 515 119 515 119 482.5 119 c 128,-1,45
 450 119 450 119 426 143 c 128,-1,46
 402 167 402 167 402 200 c 2,47,-1
 402 544 l 1,48,-1
 292 434 l 2,49,50
 268 411 268 411 235 411 c 128,-1,51
 202 411 202 411 179 434 c 128,-1,52
 156 457 156 457 155 491 c 0,28,29
EndSplineSet
EndChar

StartChar: ipod
Encoding: 104 104 72
Width: 500
Flags: W
LayerCount: 2
Back
Fore
SplineSet
250 253 m 0,0,1
 276 253 276 253 293 236 c 128,-1,2
 310 219 310 219 310 193.5 c 128,-1,3
 310 168 310 168 293 150.5 c 128,-1,4
 276 133 276 133 250.5 133 c 128,-1,5
 225 133 225 133 207.5 150.5 c 128,-1,6
 190 168 190 168 190 193.5 c 128,-1,7
 190 219 190 219 207.5 236 c 128,-1,8
 225 253 225 253 250 253 c 0,0,1
425 763 m 2,9,10
 456 763 456 763 478 741 c 128,-1,11
 500 719 500 719 500 688 c 2,12,-1
 500 12 l 2,13,14
 500 -19 500 -19 478 -41 c 128,-1,15
 456 -63 456 -63 425 -63 c 2,16,-1
 75 -63 l 2,17,18
 44 -63 44 -63 22 -41 c 128,-1,19
 0 -19 0 -19 0 12 c 2,20,-1
 0 688 l 2,21,22
 0 719 0 719 22 741 c 128,-1,23
 44 763 44 763 75 763 c 2,24,-1
 425 763 l 2,9,10
250 34 m 0,25,26
 293 34 293 34 329.5 55.5 c 128,-1,27
 366 77 366 77 387.5 113.5 c 128,-1,28
 409 150 409 150 409 193 c 128,-1,29
 409 236 409 236 387.5 272.5 c 128,-1,30
 366 309 366 309 329.5 330.5 c 128,-1,31
 293 352 293 352 250.5 352 c 128,-1,32
 208 352 208 352 171 330.5 c 128,-1,33
 134 309 134 309 112.5 272.5 c 128,-1,34
 91 236 91 236 91 193 c 128,-1,35
 91 150 91 150 112.5 113.5 c 128,-1,36
 134 77 134 77 171 55.5 c 128,-1,37
 208 34 208 34 250 34 c 0,25,26
423 433 m 1,38,-1
 423 676 l 1,39,-1
 78 676 l 1,40,-1
 78 433 l 1,41,-1
 423 433 l 1,38,-1
EndSplineSet
EndChar

StartChar: picture
Encoding: 105 105 73
Width: 1000
Flags: W
LayerCount: 2
Back
Fore
SplineSet
0 -68 m 1,0,-1
 0 768 l 1,1,-1
 1000 768 l 1,2,-1
 1000 -68 l 1,3,-1
 0 -68 l 1,0,-1
76 10 m 1,4,-1
 924 10 l 1,5,-1
 924 690 l 1,6,-1
 76 690 l 1,7,-1
 76 10 l 1,4,-1
166 90 m 1,8,-1
 166 149 l 1,9,-1
 316 344 l 1,10,-1
 418 258 l 1,11,-1
 611 549 l 1,12,-1
 834 321 l 1,13,-1
 834 90 l 1,14,-1
 166 90 l 1,8,-1
166 506 m 0,15,16
 166 543 166 543 190 568 c 128,-1,17
 214 593 214 593 252 592 c 0,18,19
 285 592 285 592 310 568 c 128,-1,20
 335 544 335 544 334 506 c 0,21,22
 334 473 334 473 310 449 c 128,-1,23
 286 425 286 425 252 424 c 0,24,25
 215 424 215 424 190 449 c 128,-1,26
 165 474 165 474 166 506 c 0,15,16
EndSplineSet
EndChar

StartChar: plus-1
Encoding: 106 106 74
Width: 785
Flags: W
LayerCount: 2
Back
Fore
SplineSet
786 439 m 2,0,-1
 786 332 l 2,1,2
 786 310 786 310 770 294 c 128,-1,3
 754 278 754 278 732 279 c 2,4,-1
 500 279 l 1,5,-1
 500 46 l 2,6,7
 500 24 500 24 484 9 c 128,-1,8
 468 -6 468 -6 446 -7 c 2,9,-1
 339 -7 l 2,10,11
 317 -7 317 -7 301 9 c 128,-1,12
 285 25 285 25 286 46 c 2,13,-1
 286 279 l 1,14,-1
 54 279 l 2,15,16
 31 279 31 279 16 294 c 128,-1,17
 1 309 1 309 0 332 c 2,18,-1
 0 439 l 2,19,20
 0 462 0 462 16 477 c 128,-1,21
 32 492 32 492 54 493 c 2,22,-1
 286 493 l 1,23,-1
 286 725 l 2,24,25
 286 747 286 747 301 763 c 128,-1,26
 316 779 316 779 339 779 c 2,27,-1
 446 779 l 2,28,29
 469 779 469 779 484 763 c 128,-1,30
 499 747 499 747 500 725 c 2,31,-1
 500 493 l 1,32,-1
 732 493 l 2,33,34
 754 493 754 493 770 477 c 128,-1,35
 786 461 786 461 786 439 c 2,0,-1
EndSplineSet
EndChar

StartChar: circle
Encoding: 107 107 75
Width: 857
Flags: W
LayerCount: 2
Back
Fore
SplineSet
857 350 m 1,0,1
 857 233 857 233 800 135 c 128,-1,2
 743 37 743 37 644 -21 c 128,-1,3
 545 -79 545 -79 429 -79 c 128,-1,4
 313 -79 313 -79 213 -21 c 128,-1,5
 113 37 113 37 58 135 c 128,-1,6
 3 233 3 233 0 350 c 128,-1,7
 -3 467 -3 467 58 565 c 128,-1,8
 119 663 119 663 213 721 c 128,-1,9
 307 779 307 779 429 779 c 128,-1,10
 551 779 551 779 644 721 c 128,-1,11
 737 663 737 663 800 565 c 128,-1,12
 863 467 863 467 857 350 c 1,0,1
EndSplineSet
EndChar

StartChar: star
Encoding: 108 108 76
Width: 928
Flags: W
LayerCount: 2
Back
Fore
SplineSet
929 489 m 0,0,1
 929 477 929 477 914 462 c 2,2,-1
 711 265 l 1,3,-1
 759 -14 l 2,4,5
 760 -18 760 -18 760 -26 c 0,6,7
 760 -37 760 -37 754 -45 c 128,-1,8
 748 -53 748 -53 737.5 -53.5 c 128,-1,9
 727 -54 727 -54 715 -47 c 2,10,-1
 464 85 l 1,11,-1
 214 -47 l 2,12,13
 201 -54 201 -54 190.5 -54 c 128,-1,14
 180 -54 180 -54 174 -45 c 128,-1,15
 168 -36 168 -36 168 -26 c 0,16,17
 168 -22 168 -22 169 -14 c 2,18,-1
 217 265 l 1,19,-1
 14 462 l 2,20,21
 0 477 0 477 0 489 c 0,22,23
 0 510 0 510 31 515 c 2,24,-1
 311 555 l 1,25,-1
 437 809 l 2,26,27
 448 832 448 832 464 832 c 128,-1,28
 480 832 480 832 492 809 c 2,29,-1
 617 555 l 1,30,-1
 897 515 l 2,31,32
 929 510 929 510 929 489 c 0,0,1
EndSplineSet
EndChar

StartChar: arrows-cw
Encoding: 109 109 77
Width: 857
Flags: W
LayerCount: 2
Back
Fore
SplineSet
843 261 m 0,0,1
 843 258 843 258 843 257 c 0,2,3
 807 107 807 107 693 14 c 128,-1,4
 579 -79 579 -79 426 -79 c 0,5,6
 345 -79 345 -79 269 -48 c 128,-1,7
 193 -17 193 -17 133 40 c 1,8,-1
 61 -32 l 2,9,10
 50 -43 50 -43 36 -43 c 128,-1,11
 22 -43 22 -43 11 -32 c 128,-1,12
 0 -21 0 -21 0 -7 c 2,13,-1
 0 243 l 2,14,15
 0 257 0 257 11 268 c 128,-1,16
 22 279 22 279 36 279 c 2,17,-1
 286 279 l 2,18,19
 300 279 300 279 311 268 c 128,-1,20
 322 257 322 257 321 243 c 128,-1,21
 320 229 320 229 311 218 c 2,22,-1
 234 141 l 1,23,24
 274 104 274 104 324 84 c 128,-1,25
 374 64 374 64 429 64 c 0,26,27
 503 64 503 64 568 101 c 128,-1,28
 633 138 633 138 672 200 c 0,29,30
 678 210 678 210 701 266 c 0,31,32
 706 279 706 279 718 279 c 2,33,-1
 825 279 l 2,34,35
 833 279 833 279 838 273 c 128,-1,36
 843 267 843 267 843 261 c 0,0,1
857 707 m 2,37,-1
 857 457 l 2,38,39
 857 443 857 443 847 432 c 128,-1,40
 837 421 837 421 821 421 c 2,41,-1
 571 421 l 2,42,43
 557 421 557 421 546 432 c 128,-1,44
 535 443 535 443 536 457 c 128,-1,45
 537 471 537 471 546 482 c 2,46,-1
 623 559 l 1,47,48
 541 636 541 636 429 636 c 0,49,50
 354 636 354 636 289 599 c 128,-1,51
 224 562 224 562 185 500 c 0,52,53
 179 490 179 490 156 434 c 0,54,55
 151 421 151 421 139 421 c 2,56,-1
 28 421 l 2,57,58
 21 421 21 421 15 427 c 128,-1,59
 9 433 9 433 10 439 c 2,60,-1
 10 443 l 1,61,62
 46 593 46 593 161 686 c 128,-1,63
 276 779 276 779 429 779 c 0,64,65
 510 779 510 779 587 748 c 128,-1,66
 664 717 664 717 724 660 c 1,67,-1
 796 732 l 2,68,69
 807 743 807 743 821 743 c 128,-1,70
 835 743 835 743 847 732 c 128,-1,71
 859 721 859 721 857 707 c 2,37,-1
EndSplineSet
EndChar

StartChar: list-add
Encoding: 110 110 78
Width: 1000
Flags: W
LayerCount: 2
Back
Fore
SplineSet
350 400 m 2,0,1
 372 400 372 400 386 385 c 128,-1,2
 400 370 400 370 400 350 c 128,-1,3
 400 330 400 330 385 315 c 128,-1,4
 370 300 370 300 350 300 c 2,5,-1
 50 300 l 2,6,7
 30 300 30 300 15 315 c 128,-1,8
 0 330 0 330 0 350 c 128,-1,9
 0 370 0 370 14 385 c 128,-1,10
 28 400 28 400 50 400 c 2,11,-1
 350 400 l 2,0,1
350 200 m 2,12,13
 372 200 372 200 386 185 c 128,-1,14
 400 170 400 170 400 150 c 128,-1,15
 400 130 400 130 385 115 c 128,-1,16
 370 100 370 100 350 100 c 2,17,-1
 50 100 l 2,18,19
 30 100 30 100 15 115 c 128,-1,20
 0 130 0 130 0 150 c 128,-1,21
 0 170 0 170 14 185 c 128,-1,22
 28 200 28 200 50 200 c 2,23,-1
 350 200 l 2,12,13
970 400 m 2,24,25
 1000 400 1000 400 1000 350 c 128,-1,26
 1000 300 1000 300 970 300 c 2,27,-1
 800 300 l 1,28,-1
 800 130 l 2,29,30
 800 100 800 100 750 100 c 128,-1,31
 700 100 700 100 700 130 c 2,32,-1
 700 300 l 1,33,-1
 536 300 l 2,34,35
 506 300 506 300 506 350 c 128,-1,36
 506 400 506 400 536 400 c 2,37,-1
 700 400 l 1,38,-1
 700 570 l 2,39,40
 700 600 700 600 750 600 c 128,-1,41
 800 600 800 600 800 570 c 2,42,-1
 800 400 l 1,43,-1
 970 400 l 2,24,25
350 600 m 2,44,45
 372 600 372 600 386 585 c 128,-1,46
 400 570 400 570 400 550 c 128,-1,47
 400 530 400 530 385 515 c 128,-1,48
 370 500 370 500 350 500 c 2,49,-1
 50 500 l 2,50,51
 30 500 30 500 15 515 c 128,-1,52
 0 530 0 530 0 550 c 128,-1,53
 0 570 0 570 14 585 c 128,-1,54
 28 600 28 600 50 600 c 2,55,-1
 350 600 l 2,44,45
EndSplineSet
EndChar

StartChar: loop
Encoding: 111 111 79
Width: 928
Flags: W
LayerCount: 2
Back
Fore
SplineSet
575 183 m 1,0,-1
 743 406 l 1,1,-1
 911 183 l 1,2,-1
 799 183 l 1,3,-1
 799 126 l 2,4,5
 799 57 799 57 751 8 c 128,-1,6
 703 -41 703 -41 632 -41 c 2,7,-1
 298 -41 l 2,8,9
 228 -41 228 -41 179 8 c 128,-1,10
 130 57 130 57 130 126 c 2,11,-1
 130 183 l 1,12,-1
 241 183 l 1,13,-1
 241 126 l 2,14,15
 241 104 241 104 258 87 c 128,-1,16
 275 70 275 70 298 71 c 2,17,-1
 632 71 l 2,18,19
 655 71 655 71 672 86 c 128,-1,20
 689 101 689 101 688 126 c 2,21,-1
 688 183 l 1,22,-1
 575 183 l 1,0,-1
354 518 m 1,23,-1
 187 294 l 1,24,-1
 18 518 l 1,25,-1
 130 518 l 1,26,-1
 130 573 l 2,27,28
 130 642 130 642 179 691 c 128,-1,29
 228 740 228 740 298 741 c 2,30,-1
 632 741 l 2,31,32
 702 741 702 741 751 691 c 128,-1,33
 800 641 800 641 799 573 c 2,34,-1
 799 518 l 1,35,-1
 688 518 l 1,36,-1
 688 573 l 2,37,38
 688 597 688 597 672 613 c 128,-1,39
 656 629 656 629 632 629 c 2,40,-1
 298 629 l 2,41,42
 274 629 274 629 258 613 c 128,-1,43
 242 597 242 597 241 573 c 2,44,-1
 241 518 l 1,45,-1
 354 518 l 1,23,-1
EndSplineSet
EndChar

StartChar: doc-new
Encoding: 112 112 80
Width: 949
Flags: W
LayerCount: 2
Back
Fore
SplineSet
0 -150 m 1,0,-1
 0 668 l 1,1,-1
 188 850 l 1,2,-1
 707 850 l 1,3,-1
 707 502 l 1,4,-1
 621 502 l 1,5,-1
 621 762 l 1,6,-1
 252 762 l 1,7,-1
 252 606 l 1,8,-1
 86 606 l 1,9,-1
 86 -62 l 1,10,-1
 504 -62 l 1,11,-1
 504 -150 l 1,12,-1
 0 -150 l 1,0,-1
373 57 m 1,13,-1
 373 219 l 1,14,-1
 582 219 l 1,15,-1
 582 426 l 1,16,-1
 742 426 l 1,17,-1
 742 219 l 1,18,-1
 949 219 l 1,19,-1
 949 57 l 1,20,-1
 742 57 l 1,21,-1
 742 -150 l 1,22,-1
 582 -150 l 1,23,-1
 582 57 l 1,24,-1
 373 57 l 1,13,-1
EndSplineSet
EndChar

StartChar: edit-alt
Encoding: 113 113 81
Width: 1000
Flags: W
LayerCount: 2
Back
Fore
SplineSet
0 -150 m 1,0,-1
 0 850 l 1,1,-1
 646 850 l 1,2,-1
 482 686 l 1,3,-1
 164 686 l 1,4,-1
 164 14 l 1,5,-1
 836 14 l 1,6,-1
 836 333 l 1,7,-1
 1000 497 l 1,8,-1
 1000 -150 l 1,9,-1
 0 -150 l 1,0,-1
363 213 m 1,10,-1
 363 331 l 1,11,-1
 369 331 l 2,12,13
 408 333 408 333 441 301 c 0,14,15
 480 262 480 262 480 213 c 1,16,-1
 363 213 l 1,10,-1
414 389 m 1,17,-1
 781 756 l 1,18,-1
 906 631 l 1,19,-1
 539 264 l 1,20,-1
 414 389 l 1,17,-1
811 786 m 1,21,-1
 875 850 l 1,22,-1
 1000 725 l 1,23,-1
 936 661 l 1,24,-1
 811 786 l 1,21,-1
EndSplineSet
EndChar

StartChar: transport
Encoding: 114 114 82
Width: 966
Flags: W
LayerCount: 2
Back
Fore
SplineSet
489 1028 m 0,0,1
 483 1028 483 1028 480 1026 c 0,2,3
 393 970 393 970 327.5 883 c 128,-1,4
 262 796 262 796 227 689 c 128,-1,5
 192 582 192 582 192 468 c 0,6,7
 192 399 192 399 206 328 c 1,8,9
 176 298 176 298 148 258 c 0,10,11
 144 251 144 251 146 243 c 2,12,-1
 246 -96 l 2,13,14
 248 -105 248 -105 257 -106.5 c 128,-1,15
 266 -108 266 -108 273 -101 c 0,16,17
 315 -49 315 -49 381 -24 c 1,18,-1
 381 -42 l 2,19,20
 381 -49 381 -49 386 -54 c 128,-1,21
 391 -59 391 -59 397 -59 c 2,22,-1
 579 -59 l 2,23,24
 585 -59 585 -59 590 -54 c 128,-1,25
 595 -49 595 -49 594 -42 c 2,26,-1
 594 -29 l 1,27,28
 662 -54 662 -54 703 -106 c 0,29,30
 708 -112 708 -112 715 -112 c 0,31,32
 717 -112 717 -112 718 -111 c 0,33,34
 722 -110 722 -110 725 -107 c 128,-1,35
 728 -104 728 -104 730 -101 c 2,36,-1
 830 239 l 2,37,38
 832 247 832 247 828 254 c 0,39,40
 795 298 795 298 770 324 c 1,41,42
 784 399 784 399 784 468 c 0,43,44
 784 582 784 582 749 689 c 128,-1,45
 714 796 714 796 649.5 883 c 128,-1,46
 585 970 585 970 497 1026 c 0,47,48
 494 1028 494 1028 489 1028 c 0,0,1
489 752 m 0,49,50
 520 752 520 752 547.5 735.5 c 128,-1,51
 575 719 575 719 591 691 c 128,-1,52
 607 663 607 663 607 630 c 128,-1,53
 607 597 607 597 592 573 c 0,54,55
 576 543 576 543 548.5 525.5 c 128,-1,56
 521 508 521 508 489 508 c 128,-1,57
 457 508 457 508 431 523.5 c 128,-1,58
 405 539 405 539 388 568 c 128,-1,59
 371 597 371 597 371 630 c 128,-1,60
 371 663 371 663 386.5 691 c 128,-1,61
 402 719 402 719 429.5 735.5 c 128,-1,62
 457 752 457 752 489 752 c 0,49,50
696 561 m 2,63,64
 703 561 703 561 708.5 556.5 c 128,-1,65
 714 552 714 552 715 546 c 0,66,67
 717 523 717 523 716 479 c 0,68,69
 712 402 712 402 697 321 c 0,70,71
 674 208 674 208 629 105 c 0,72,73
 628 101 628 101 622 98 c 128,-1,74
 616 95 616 95 612 96 c 128,-1,75
 608 97 608 97 605 97 c 0,76,77
 598 100 598 100 595 107 c 128,-1,78
 592 114 592 114 594 118 c 0,79,80
 611 158 611 158 625 200 c 0,81,82
 638 239 638 239 648 278 c 0,83,84
 656 315 656 315 663 351 c 0,85,86
 668 382 668 382 672 414 c 0,87,88
 675 441 675 441 676 467 c 0,89,90
 677 488 677 488 677 507 c 2,91,-1
 677 534 l 2,92,93
 677 547 677 547 677 543 c 1,94,95
 676 549 676 549 682 554.5 c 128,-1,96
 688 560 688 560 695 561 c 2,97,-1
 696 561 l 2,63,64
397 -79 m 2,98,99
 390 -79 390 -79 385 -86 c 128,-1,100
 380 -93 380 -93 383 -101 c 2,101,-1
 473 -322 l 2,102,103
 475 -326 475 -326 479 -329 c 128,-1,104
 483 -332 483 -332 487 -332 c 128,-1,105
 491 -332 491 -332 495.5 -329 c 128,-1,106
 500 -326 500 -326 502 -322 c 2,107,-1
 591 -101 l 2,108,109
 595 -95 595 -95 590 -87 c 128,-1,110
 585 -79 585 -79 577 -79 c 2,111,-1
 397 -79 l 2,98,99
421 -112 m 1,112,-1
 554 -112 l 1,113,-1
 487 -275 l 1,114,-1
 421 -112 l 1,112,-1
EndSplineSet
EndChar

StartChar: exit
Encoding: 115 115 83
Width: 1000
Flags: W
LayerCount: 2
Back
Fore
SplineSet
931 90 m 2,0,-1
 931 580 l 2,1,2
 931 650 931 650 881 699 c 128,-1,3
 831 748 831 748 762 749 c 2,4,-1
 633 749 l 2,5,6
 604 749 604 749 585 729 c 128,-1,7
 566 709 566 709 565 683 c 0,8,9
 565 654 565 654 585 635 c 128,-1,10
 605 616 605 616 633 615 c 2,11,-1
 762 615 l 2,12,13
 777 615 777 615 787 605 c 128,-1,14
 797 595 797 595 797 580 c 2,15,-1
 797 90 l 2,16,17
 797 76 797 76 787 65 c 128,-1,18
 777 54 777 54 762 55 c 2,19,-1
 174 55 l 2,20,21
 159 55 159 55 149 65 c 128,-1,22
 139 75 139 75 139 90 c 2,23,-1
 139 150 l 2,24,25
 139 177 139 177 119 197 c 128,-1,26
 99 217 99 217 72 217 c 128,-1,27
 45 217 45 217 25 197 c 128,-1,28
 5 177 5 177 6 150 c 2,29,-1
 6 90 l 2,30,31
 6 20 6 20 55 -30 c 128,-1,32
 104 -80 104 -80 174 -79 c 2,33,-1
 762 -79 l 2,34,35
 832 -79 832 -79 881 -30 c 128,-1,36
 930 19 930 19 931 90 c 2,0,-1
687 180 m 1,37,38
 642 261 642 261 566 312 c 128,-1,39
 490 363 490 363 399 371 c 0,40,41
 357 374 357 374 325 369 c 1,42,-1
 325 266 l 2,43,44
 325 244 325 244 314 236 c 128,-1,45
 303 228 303 228 287 240 c 2,46,-1
 4 447 l 2,47,48
 -6 455 -6 455 -6 466 c 0,49,50
 -6 472 -6 472 -4 477 c 128,-1,51
 -2 482 -2 482 2 484 c 2,52,-1
 4 486 l 1,53,-1
 287 693 l 2,54,55
 302 705 302 705 314 697 c 128,-1,56
 326 689 326 689 325 667 c 2,57,-1
 325 583 l 1,58,59
 332 583 332 583 345 582 c 0,60,61
 418 575 418 575 482 541 c 128,-1,62
 546 507 546 507 591 452 c 128,-1,63
 636 397 636 397 663 328 c 128,-1,64
 690 259 690 259 687 180 c 1,37,38
EndSplineSet
EndChar

StartChar: displeased
Encoding: 116 116 84
Width: 817
Flags: W
LayerCount: 2
Back
Fore
SplineSet
171 800 m 0,0,1
 141 800 141 800 116 780.5 c 128,-1,2
 91 761 91 761 76 728 c 128,-1,3
 61 695 61 695 61 656 c 128,-1,4
 61 617 61 617 76 583.5 c 128,-1,5
 91 550 91 550 116 530.5 c 128,-1,6
 141 511 141 511 171 511 c 128,-1,7
 201 511 201 511 226 530.5 c 128,-1,8
 251 550 251 550 265.5 583.5 c 128,-1,9
 280 617 280 617 280 656 c 128,-1,10
 280 695 280 695 265.5 728 c 128,-1,11
 251 761 251 761 225.5 780.5 c 128,-1,12
 200 800 200 800 171 800 c 0,0,1
647 800 m 256,13,14
 617 800 617 800 592 780.5 c 128,-1,15
 567 761 567 761 552 728 c 128,-1,16
 537 695 537 695 537 656 c 128,-1,17
 537 617 537 617 552 583.5 c 128,-1,18
 567 550 567 550 592 530.5 c 128,-1,19
 617 511 617 511 647 511 c 128,-1,20
 677 511 677 511 702 530.5 c 128,-1,21
 727 550 727 550 742 583.5 c 128,-1,22
 757 617 757 617 757 656 c 128,-1,23
 757 695 757 695 742 728 c 128,-1,24
 727 761 727 761 702 780.5 c 128,-1,25
 677 800 677 800 647 800 c 256,13,14
53 353 m 0,26,27
 39 353 39 353 26.5 346 c 128,-1,28
 14 339 14 339 7 326 c 0,29,30
 -4 307 -4 307 1.5 285 c 128,-1,31
 7 263 7 263 27 252 c 2,32,-1
 736 -127 l 2,33,34
 755 -138 755 -138 777 -132.5 c 128,-1,35
 799 -127 799 -127 810 -107.5 c 128,-1,36
 821 -88 821 -88 815.5 -66 c 128,-1,37
 810 -44 810 -44 790 -33 c 2,38,-1
 81 346 l 2,39,40
 68 353 68 353 53 353 c 0,26,27
EndSplineSet
EndChar

StartChar: u
Encoding: 117 117 85
Width: 640
Flags: WO
LayerCount: 2
Back
Fore
SplineSet
112 589.20703125 m 1,0,-1
 72 590 l 1,1,2
 0 624 0 624 0.00128174540441 699.359422604 c 1,3,-1
 0 800 l 0,4,5
 0 850 0 850 35 885 c 128,-1,6
 70 920 70 920 120 920 c 0,7,-1
 351.384765625 919.993164062 l 1,8,9
 400 920 400 920 435 885 c 128,-1,10
 470 850 470 850 469.995117188 801.120117188 c 1,11,-1
 470 700 l 0,12,13
 470 624 470 624 398.896484375 590.426757812 c 1,14,-1
 188 590 l 1,15,-1
 188 486 l 2,16,17
 188 408 188 408 266 408 c 2,18,-1
 380 408 l 1,19,-1
 380 448 l 1,20,21
 414 530 414 530 490 530 c 0,22,-1
 703.934570312 529.9453125 l 1,23,24
 751 529 751 529 785 495 c 128,-1,25
 819 461 819 461 819.9765625 412.55859375 c 1,26,-1
 820 330 l 0,27,28
 820 280 820 280 785 245 c 0,29,30
 751 211 751 211 703.603515625 210.045898438 c 1,31,-1
 490 210 l 0,32,33
 414 210 414 210 380 294 c 1,34,-1
 380 334 l 1,35,-1
 266 334 l 2,36,37
 224 334 224 334 188 350 c 1,38,-1
 188 116 l 2,39,40
 188 38 188 38 266 38 c 2,41,-1
 380 38 l 1,42,-1
 380 88 l 1,43,44
 414 170 414 170 490 170 c 0,45,-1
 703.451171875 169.958007812 l 1,46,47
 751 169 751 169 785 135 c 0,48,49
 820 100 820 100 820 50 c 1,50,-1
 820 -40 l 1,51,52
 820 -90 820 -90 785 -125 c 0,53,54
 751 -159 751 -159 703.120117188 -159.965820312 c 1,55,-1
 490 -160 l 0,56,57
 414 -160 414 -160 380 -76 c 1,58,-1
 380 -36 l 1,59,-1
 286 -36 l 2,60,61
 198 -36 198 -36 155 13 c 0,62,63
 112 61 112 61 112 126 c 2,64,-1
 112 589.20703125 l 1,0,-1
755.232421875 407.181640625 m 1,65,66
 755 431 755 431 736.129882812 448.8203125 c 0,67,68
 718 465 718 465 695.05859375 466.135742188 c 1,69,-1
 500.440429688 466.219726562 l 256,70,71
 475 466 475 466 455.849609375 448.8203125 c 0,72,73
 437 431 437 431 436.740234375 406.190429688 c 0,74,-1
 436.758789062 335.030273438 l 1,75,76
 438 310 438 310 455.849609375 293.959960938 c 0,77,78
 475 277 475 277 500.440429688 276.559570312 c 0,79,-1
 694.884765625 276.63671875 l 1,80,81
 718 277 718 277 736.129882812 293.959960938 c 0,82,83
 755 311 755 311 755.240234375 336.58984375 c 0,84,-1
 755.232421875 407.181640625 l 1,65,66
63.4423828125 707.692382812 m 5,85,86
 63 683 63 683 82.9345703125 666.490234375 c 4,87,88
 102 649 102 649 128.044921875 649.225585938 c 5,89,-1
 341.901367188 649.224609375 l 4,90,91
 368 649 368 649 387.383789062 666.490234375 c 4,92,93
 407 683 407 683 406.875976562 708.578125 c 5,94,-1
 406.875976562 795.12109375 l 4,95,96
 407 820 407 820 387.383789062 837.423828125 c 4,97,98
 368 855 368 855 341.901367188 854.689453125 c 4,99,-1
 127.916015625 854.688476562 l 5,100,101
 102 855 102 855 82.9345703125 833.106445312 c 4,102,103
 63 811 63 811 63.44140625 794.258789062 c 4,104,-1
 63.4423828125 757.13671875 l 5,105,-1
 63.4423828125 707.692382812 l 5,85,86
440.245117188 -33.599609375 m 1,106,107
 440 -57 440 -57 458.9296875 -73.919921875 c 128,-1,108
 478 -91 478 -91 502.540039062 -90.7197265625 c 256,109,-1
 692.28125 -90.6640625 l 1,110,111
 715 -90 715 -90 733.049804688 -73.919921875 c 0,112,113
 752 -57 752 -57 751.734375 -33.599609375 c 1,114,-1
 751.740234375 42.83984375 l 0,115,116
 752 67 752 67 733.049804688 84 c 0,117,118
 715 100 715 100 692.451171875 100.737304688 c 1,119,-1
 502.540039062 100.799804688 l 0,120,121
 478 101 478 101 458.9296875 84 c 128,-1,122
 440 67 440 67 440.240234375 42.83984375 c 0,123,-1
 440.245117188 -33.599609375 l 1,106,107
EndSplineSet
EndChar
